<svg width="1080" height="1080" version="1.1" xmlns="http://www.w3.org/2000/svg" desc="Created with imagetracer.js version 1.2.6" ><path fill="rgb(235,222,181)" stroke="rgb(235,222,181)" stroke-width="1" opacity="1" d="M 554.5 234 L 564 234.5 L 554.5 235 L 554.5 234 Z " /><path fill="rgb(235,222,181)" stroke="rgb(235,222,181)" stroke-width="1" opacity="1" d="M 534.5 242 L 532.5 245 L 534.5 242 Z " /><path fill="rgb(235,222,181)" stroke="rgb(235,222,181)" stroke-width="1" opacity="1" d="M 528.5 248 L 527.5 250 L 528.5 248 Z " /><path fill="rgb(235,222,181)" stroke="rgb(235,222,181)" stroke-width="1" opacity="1" d="M 566.5 259 L 569 259.5 L 566.5 260 L 566.5 259 Z " /><path fill="rgb(235,222,181)" stroke="rgb(235,222,181)" stroke-width="1" opacity="1" d="M 547.5 265 L 546.5 267 L 547.5 265 Z " /><path fill="rgb(235,222,181)" stroke="rgb(235,222,181)" stroke-width="1" opacity="1" d="M 772.5 285 L 773.5 287 L 772.5 285 Z " /><path fill="rgb(235,222,181)" stroke="rgb(235,222,181)" stroke-width="1" opacity="1" d="M 779.5 292 L 780.5 294 L 779.5 292 Z " /><path fill="rgb(235,222,181)" stroke="rgb(235,222,181)" stroke-width="1" opacity="1" d="M 752.5 303 L 753.5 305 L 752.5 303 Z " /><path fill="rgb(235,222,181)" stroke="rgb(235,222,181)" stroke-width="1" opacity="1" d="M 615.5 311 L 619 311.5 L 615.5 312 L 615.5 311 Z " /><path fill="rgb(235,222,181)" stroke="rgb(235,222,181)" stroke-width="1" opacity="1" d="M 760.5 311 L 761.5 313 L 760.5 311 Z " /><path fill="rgb(235,222,181)" stroke="rgb(235,222,181)" stroke-width="1" opacity="1" d="M 608.5 314 L 607.5 316 L 608.5 314 Z " /><path fill="rgb(235,222,181)" stroke="rgb(235,222,181)" stroke-width="1" opacity="1" d="M 613.5 320 L 612.5 322 L 613.5 320 Z " /><path fill="rgb(235,222,181)" stroke="rgb(235,222,181)" stroke-width="1" opacity="1" d="M 660 321 L 675.5 324 L 685 331.5 L 686 339.5 L 683 353.5 L 681.5 355 L 675 354 L 678 341.5 L 678 334.5 L 675.5 332 L 660.5 329 L 659 327.5 L 660 321 Z " /><path fill="rgb(235,222,181)" stroke="rgb(235,222,181)" stroke-width="1" opacity="1" d="M 767.5 327 L 768 330.5 L 767 330.5 L 767.5 327 Z " /><path fill="rgb(235,222,181)" stroke="rgb(235,222,181)" stroke-width="1" opacity="1" d="M 397 333 L 400 333.5 L 397.5 335 L 397 333 Z " /><path fill="rgb(235,222,181)" stroke="rgb(235,222,181)" stroke-width="1" opacity="1" d="M 601.5 333 L 602 336.5 L 601 336.5 L 601.5 333 Z " /><path fill="rgb(235,222,181)" stroke="rgb(235,222,181)" stroke-width="1" opacity="1" d="M 401.5 334 L 404 334.5 L 401.5 335 L 401.5 334 Z " /><path fill="rgb(235,222,181)" stroke="rgb(235,222,181)" stroke-width="1" opacity="1" d="M 767.5 334 L 768 337.5 L 767 337.5 L 767.5 334 Z " /><path fill="rgb(235,222,181)" stroke="rgb(235,222,181)" stroke-width="1" opacity="1" d="M 408.5 336 L 412 337.5 L 410.5 338 L 408.5 336 Z " /><path fill="rgb(235,222,181)" stroke="rgb(235,222,181)" stroke-width="1" opacity="1" d="M 653.5 336 L 656 336.5 L 653.5 337 L 653.5 336 Z " /><path fill="rgb(235,222,181)" stroke="rgb(235,222,181)" stroke-width="1" opacity="1" d="M 398.5 337 L 399 339.5 L 398 339.5 L 398.5 337 Z " /><path fill="rgb(235,222,181)" stroke="rgb(235,222,181)" stroke-width="1" opacity="1" d="M 639.5 338 L 640 340.5 L 639 340.5 L 639.5 338 Z " /><path fill="rgb(235,222,181)" stroke="rgb(235,222,181)" stroke-width="1" opacity="1" d="M 665.5 339 L 666.5 341 L 665.5 339 Z " /><path fill="rgb(235,222,181)" stroke="rgb(235,222,181)" stroke-width="1" opacity="1" d="M 562.5 342 L 565 346.5 L 564 346.5 L 562.5 343 L 560 344.5 L 562.5 342 Z " /><path fill="rgb(235,222,181)" stroke="rgb(235,222,181)" stroke-width="1" opacity="1" d="M 616.5 342 L 617 344.5 L 616 344.5 L 616.5 342 Z " /><path fill="rgb(235,222,181)" stroke="rgb(235,222,181)" stroke-width="1" opacity="1" d="M 645.5 342 L 646 344.5 L 645 344.5 L 645.5 342 Z " /><path fill="rgb(235,222,181)" stroke="rgb(235,222,181)" stroke-width="1" opacity="1" d="M 423.5 343 L 427 345.5 L 425.5 345 L 423.5 343 Z " /><path fill="rgb(235,222,181)" stroke="rgb(235,222,181)" stroke-width="1" opacity="1" d="M 428.5 346 L 429.5 348 L 428.5 346 Z " /><path fill="rgb(235,222,181)" stroke="rgb(235,222,181)" stroke-width="1" opacity="1" d="M 519.5 346 L 518.5 348 L 516 347.5 L 519.5 346 Z " /><path fill="rgb(235,222,181)" stroke="rgb(235,222,181)" stroke-width="1" opacity="1" d="M 558.5 346 L 554.5 351 L 552.5 352 L 553.5 350 L 558.5 346 Z " /><path fill="rgb(235,222,181)" stroke="rgb(235,222,181)" stroke-width="1" opacity="1" d="M 431.5 348 L 432.5 350 L 431.5 348 Z " /><path fill="rgb(235,222,181)" stroke="rgb(235,222,181)" stroke-width="1" opacity="1" d="M 565.5 348 L 567 354.5 L 566 354.5 L 565.5 348 Z " /><path fill="rgb(235,222,181)" stroke="rgb(235,222,181)" stroke-width="1" opacity="1" d="M 434.5 350 L 436.5 353 L 434.5 350 Z " /><path fill="rgb(235,222,181)" stroke="rgb(235,222,181)" stroke-width="1" opacity="1" d="M 439.5 354 L 442.5 358 L 439.5 354 Z " /><path fill="rgb(235,222,181)" stroke="rgb(235,222,181)" stroke-width="1" opacity="1" d="M 540.5 355 L 543 355.5 L 540.5 356 L 540.5 355 Z " /><path fill="rgb(235,222,181)" stroke="rgb(235,222,181)" stroke-width="1" opacity="1" d="M 641.5 355 L 641.5 357 L 643 357.5 L 641.5 358 L 640 357.5 Q 640.8 359.8 638.5 359 L 641.5 355 Z " /><path fill="rgb(235,222,181)" stroke="rgb(235,222,181)" stroke-width="1" opacity="1" d="M 533.5 356 L 537 356.5 L 533.5 357 L 533.5 356 Z " /><path fill="rgb(235,222,181)" stroke="rgb(235,222,181)" stroke-width="1" opacity="1" d="M 567.5 356 L 568 359.5 L 567 359.5 L 567.5 356 Z " /><path fill="rgb(235,222,181)" stroke="rgb(235,222,181)" stroke-width="1" opacity="1" d="M 519.5 357 L 527 357.5 L 519.5 358 L 519.5 357 Z " /><path fill="rgb(235,222,181)" stroke="rgb(235,222,181)" stroke-width="1" opacity="1" d="M 616.5 357 L 620 357.5 L 616.5 358 L 616.5 357 Z " /><path fill="rgb(235,222,181)" stroke="rgb(235,222,181)" stroke-width="1" opacity="1" d="M 614.5 358 L 613.5 360 L 614.5 358 Z " /><path fill="rgb(235,222,181)" stroke="rgb(235,222,181)" stroke-width="1" opacity="1" d="M 626.5 359 L 629 359.5 L 626.5 360 L 626.5 359 Z " /><path fill="rgb(235,222,181)" stroke="rgb(235,222,181)" stroke-width="1" opacity="1" d="M 657.5 359 L 662 359.5 L 657.5 360 L 657.5 359 Z " /><path fill="rgb(235,222,181)" stroke="rgb(235,222,181)" stroke-width="1" opacity="1" d="M 568.5 361 L 569 366.5 L 568 366.5 L 568.5 361 Z " /><path fill="rgb(235,222,181)" stroke="rgb(235,222,181)" stroke-width="1" opacity="1" d="M 595 362 L 603 363 L 600 373.5 L 600 382.5 L 603.5 385 L 614.5 387 L 619 389.5 L 616.5 396 L 600.5 392 L 593 385.5 Q 590.5 382 592 374.5 L 595 362 Z " /><path fill="rgb(235,222,181)" stroke="rgb(235,222,181)" stroke-width="1" opacity="1" d="M 635.5 362 L 634.5 364 L 635.5 362 Z " /><path fill="rgb(235,222,181)" stroke="rgb(235,222,181)" stroke-width="1" opacity="1" d="M 642.5 364 L 640.5 367 L 642.5 364 Z " /><path fill="rgb(235,222,181)" stroke="rgb(235,222,181)" stroke-width="1" opacity="1" d="M 494.5 365 L 493.5 367 L 494.5 365 Z " /><path fill="rgb(235,222,181)" stroke="rgb(235,222,181)" stroke-width="1" opacity="1" d="M 452.5 367 L 454.5 370 L 452.5 367 Z " /><path fill="rgb(235,222,181)" stroke="rgb(235,222,181)" stroke-width="1" opacity="1" d="M 659.5 367 L 660.5 369 L 659.5 367 Z " /><path fill="rgb(235,222,181)" stroke="rgb(235,222,181)" stroke-width="1" opacity="1" d="M 391.5 369 L 391 370.5 L 389.5 373 L 390 371.5 L 391.5 369 Z " /><path fill="rgb(235,222,181)" stroke="rgb(235,222,181)" stroke-width="1" opacity="1" d="M 489.5 369 L 488.5 371 L 489.5 369 Z " /><path fill="rgb(235,222,181)" stroke="rgb(235,222,181)" stroke-width="1" opacity="1" d="M 569.5 371 L 570 388.5 L 569 388.5 L 569.5 371 Z " /><path fill="rgb(235,222,181)" stroke="rgb(235,222,181)" stroke-width="1" opacity="1" d="M 456.5 372 L 457.5 374 L 456.5 372 Z " /><path fill="rgb(235,222,181)" stroke="rgb(235,222,181)" stroke-width="1" opacity="1" d="M 485.5 374 L 483.5 377 L 485.5 374 Z " /><path fill="rgb(235,222,181)" stroke="rgb(235,222,181)" stroke-width="1" opacity="1" d="M 458.5 375 L 459.5 377 L 458.5 375 Z " /><path fill="rgb(235,222,181)" stroke="rgb(235,222,181)" stroke-width="1" opacity="1" d="M 386.5 378 L 385.5 380 L 386.5 378 Z " /><path fill="rgb(235,222,181)" stroke="rgb(235,222,181)" stroke-width="1" opacity="1" d="M 637.5 378 L 638 381.5 L 637 381.5 L 637.5 378 Z " /><path fill="rgb(235,222,181)" stroke="rgb(235,222,181)" stroke-width="1" opacity="1" d="M 481.5 379 L 480.5 381 L 481.5 379 Z " /><path fill="rgb(235,222,181)" stroke="rgb(235,222,181)" stroke-width="1" opacity="1" d="M 629.5 379 L 628.5 381 L 629.5 379 Z " /><path fill="rgb(235,222,181)" stroke="rgb(235,222,181)" stroke-width="1" opacity="1" d="M 479.5 382 L 478.5 384 L 479.5 382 Z " /><path fill="rgb(235,222,181)" stroke="rgb(235,222,181)" stroke-width="1" opacity="1" d="M 657.5 385 L 656.5 387 L 657.5 385 Z " /><path fill="rgb(235,222,181)" stroke="rgb(235,222,181)" stroke-width="1" opacity="1" d="M 464.5 386 L 465 388.5 L 461.5 395 L 461 393.5 L 464.5 386 Z " /><path fill="rgb(235,222,181)" stroke="rgb(235,222,181)" stroke-width="1" opacity="1" d="M 652.5 387 L 655 387.5 L 652.5 388 L 652.5 387 Z " /><path fill="rgb(235,222,181)" stroke="rgb(235,222,181)" stroke-width="1" opacity="1" d="M 568.5 394 L 569 397.5 L 568 397.5 L 568.5 394 Z " /><path fill="rgb(235,222,181)" stroke="rgb(235,222,181)" stroke-width="1" opacity="1" d="M 378.5 397 L 379 409.5 L 378 409.5 L 378.5 397 Z " /><path fill="rgb(235,222,181)" stroke="rgb(235,222,181)" stroke-width="1" opacity="1" d="M 458.5 400 L 459 401.5 L 457.5 404 L 457 402.5 L 458.5 400 Z " /><path fill="rgb(235,222,181)" stroke="rgb(235,222,181)" stroke-width="1" opacity="1" d="M 670.5 400 L 667.5 404 L 670.5 400 Z " /><path fill="rgb(235,222,181)" stroke="rgb(235,222,181)" stroke-width="1" opacity="1" d="M 456.5 405 L 457 406.5 L 455.5 409 L 455 407.5 L 456.5 405 Z " /><path fill="rgb(235,222,181)" stroke="rgb(235,222,181)" stroke-width="1" opacity="1" d="M 657.5 405 L 663 405.5 L 657.5 406 L 657.5 405 Z " /><path fill="rgb(235,222,181)" stroke="rgb(235,222,181)" stroke-width="1" opacity="1" d="M 462.5 417 L 463 419.5 L 462 419.5 L 462.5 417 Z " /><path fill="rgb(235,222,181)" stroke="rgb(235,222,181)" stroke-width="1" opacity="1" d="M 451.5 420 L 452 423.5 L 451 423.5 L 451.5 420 Z " /><path fill="rgb(235,222,181)" stroke="rgb(235,222,181)" stroke-width="1" opacity="1" d="M 461.5 421 L 462 423.5 L 461 423.5 L 461.5 421 Z " /><path fill="rgb(235,222,181)" stroke="rgb(235,222,181)" stroke-width="1" opacity="1" d="M 559.5 425 L 558.5 427 L 559.5 425 Z " /><path fill="rgb(235,222,181)" stroke="rgb(235,222,181)" stroke-width="1" opacity="1" d="M 450.5 426 L 451 445.5 L 450 445.5 L 450.5 426 Z " /><path fill="rgb(235,222,181)" stroke="rgb(235,222,181)" stroke-width="1" opacity="1" d="M 460.5 427 L 461 445.5 L 460 445.5 L 460.5 427 Z " /><path fill="rgb(235,222,181)" stroke="rgb(235,222,181)" stroke-width="1" opacity="1" d="M 557.5 428 L 556.5 430 L 557.5 428 Z " /><path fill="rgb(235,222,181)" stroke="rgb(235,222,181)" stroke-width="1" opacity="1" d="M 549.5 430 L 554 430.5 L 549.5 431 L 549.5 430 Z " /><path fill="rgb(235,222,181)" stroke="rgb(235,222,181)" stroke-width="1" opacity="1" d="M 543.5 431 L 547 431.5 L 543.5 432 L 543.5 431 Z " /><path fill="rgb(235,222,181)" stroke="rgb(235,222,181)" stroke-width="1" opacity="1" d="M 538.5 432 L 541 432.5 L 538.5 433 L 538.5 432 Z " /><path fill="rgb(235,222,181)" stroke="rgb(235,222,181)" stroke-width="1" opacity="1" d="M 533.5 433 L 536 433.5 L 533.5 434 L 533.5 433 Z " /><path fill="rgb(235,222,181)" stroke="rgb(235,222,181)" stroke-width="1" opacity="1" d="M 529.5 434 L 532 434.5 L 529.5 435 L 529.5 434 Z " /><path fill="rgb(235,222,181)" stroke="rgb(235,222,181)" stroke-width="1" opacity="1" d="M 523.5 436 L 525 436.5 L 521.5 438 L 521.5 437 L 523.5 436 Z " /><path fill="rgb(235,222,181)" stroke="rgb(235,222,181)" stroke-width="1" opacity="1" d="M 560.5 439 L 578 439.5 L 560.5 440 L 560.5 439 Z " /><path fill="rgb(235,222,181)" stroke="rgb(235,222,181)" stroke-width="1" opacity="1" d="M 551.5 440 L 555 440.5 L 551.5 441 L 551.5 440 Z " /><path fill="rgb(235,222,181)" stroke="rgb(235,222,181)" stroke-width="1" opacity="1" d="M 581.5 440 L 584 440.5 L 581.5 441 L 581.5 440 Z " /><path fill="rgb(235,222,181)" stroke="rgb(235,222,181)" stroke-width="1" opacity="1" d="M 513.5 441 L 512.5 443 L 513.5 441 Z " /><path fill="rgb(235,222,181)" stroke="rgb(235,222,181)" stroke-width="1" opacity="1" d="M 544.5 441 L 548 441.5 L 544.5 442 L 544.5 441 Z " /><path fill="rgb(235,222,181)" stroke="rgb(235,222,181)" stroke-width="1" opacity="1" d="M 539.5 442 L 542 442.5 L 539.5 443 L 539.5 442 Z " /><path fill="rgb(235,222,181)" stroke="rgb(235,222,181)" stroke-width="1" opacity="1" d="M 391.5 443 L 392.5 445 L 391.5 443 Z " /><path fill="rgb(235,222,181)" stroke="rgb(235,222,181)" stroke-width="1" opacity="1" d="M 510.5 443 L 509.5 445 L 510.5 443 Z " /><path fill="rgb(235,222,181)" stroke="rgb(235,222,181)" stroke-width="1" opacity="1" d="M 534.5 443 L 537 443.5 L 534.5 444 L 534.5 443 Z " /><path fill="rgb(235,222,181)" stroke="rgb(235,222,181)" stroke-width="1" opacity="1" d="M 507.5 445 L 505.5 448 L 507.5 445 Z " /><path fill="rgb(235,222,181)" stroke="rgb(235,222,181)" stroke-width="1" opacity="1" d="M 368.5 446 L 372 446.5 L 368.5 447 L 368.5 446 Z " /><path fill="rgb(235,222,181)" stroke="rgb(235,222,181)" stroke-width="1" opacity="1" d="M 598.5 446 L 600.5 449 L 598.5 446 Z " /><path fill="rgb(235,222,181)" stroke="rgb(235,222,181)" stroke-width="1" opacity="1" d="M 359.5 447 L 362 447.5 L 359.5 448 L 359.5 447 Z " /><path fill="rgb(235,222,181)" stroke="rgb(235,222,181)" stroke-width="1" opacity="1" d="M 378.5 447 L 381 447.5 L 378.5 448 L 378.5 447 Z " /><path fill="rgb(235,222,181)" stroke="rgb(235,222,181)" stroke-width="1" opacity="1" d="M 353.5 448 L 356 448.5 L 353.5 449 L 353.5 448 Z " /><path fill="rgb(235,222,181)" stroke="rgb(235,222,181)" stroke-width="1" opacity="1" d="M 521.5 448 L 520.5 450 L 518.5 451 L 519.5 449 L 521.5 448 Z " /><path fill="rgb(235,222,181)" stroke="rgb(235,222,181)" stroke-width="1" opacity="1" d="M 451.5 449 L 452 452.5 L 451 452.5 L 451.5 449 Z " /><path fill="rgb(235,222,181)" stroke="rgb(235,222,181)" stroke-width="1" opacity="1" d="M 461.5 449 L 462 451.5 L 461 451.5 L 461.5 449 Z " /><path fill="rgb(235,222,181)" stroke="rgb(235,222,181)" stroke-width="1" opacity="1" d="M 502.5 449 L 489.5 463 L 502.5 449 Z " /><path fill="rgb(235,222,181)" stroke="rgb(235,222,181)" stroke-width="1" opacity="1" d="M 603.5 450 L 605.5 453 L 603.5 450 Z " /><path fill="rgb(235,222,181)" stroke="rgb(235,222,181)" stroke-width="1" opacity="1" d="M 384.5 451 L 385.5 453 L 384.5 451 Z " /><path fill="rgb(235,222,181)" stroke="rgb(235,222,181)" stroke-width="1" opacity="1" d="M 516.5 451 L 515.5 453 L 516.5 451 Z " /><path fill="rgb(235,222,181)" stroke="rgb(235,222,181)" stroke-width="1" opacity="1" d="M 397.5 453 L 398.5 455 L 397.5 453 Z " /><path fill="rgb(235,222,181)" stroke="rgb(235,222,181)" stroke-width="1" opacity="1" d="M 513.5 453 L 512.5 455 L 513.5 453 Z " /><path fill="rgb(235,222,181)" stroke="rgb(235,222,181)" stroke-width="1" opacity="1" d="M 462.5 454 L 463 456.5 L 462 456.5 L 462.5 454 Z " /><path fill="rgb(235,222,181)" stroke="rgb(235,222,181)" stroke-width="1" opacity="1" d="M 452.5 455 L 453 457.5 L 452 457.5 L 452.5 455 Z " /><path fill="rgb(235,222,181)" stroke="rgb(235,222,181)" stroke-width="1" opacity="1" d="M 387.5 456 L 388.5 458 L 387.5 456 Z " /><path fill="rgb(235,222,181)" stroke="rgb(235,222,181)" stroke-width="1" opacity="1" d="M 399.5 456 L 400.5 458 L 399.5 456 Z " /><path fill="rgb(235,222,181)" stroke="rgb(235,222,181)" stroke-width="1" opacity="1" d="M 509.5 456 L 496.5 470 L 509.5 456 Z " /><path fill="rgb(235,222,181)" stroke="rgb(235,222,181)" stroke-width="1" opacity="1" d="M 608.5 456 L 609.5 458 L 608.5 456 Z " /><path fill="rgb(235,222,181)" stroke="rgb(235,222,181)" stroke-width="1" opacity="1" d="M 326.5 458 L 325.5 460 L 323.5 461 L 324.5 459 L 326.5 458 Z " /><path fill="rgb(235,222,181)" stroke="rgb(235,222,181)" stroke-width="1" opacity="1" d="M 389.5 459 L 390.5 461 L 389.5 459 Z " /><path fill="rgb(235,222,181)" stroke="rgb(235,222,181)" stroke-width="1" opacity="1" d="M 401.5 459 L 403.5 462 L 401.5 459 Z " /><path fill="rgb(235,222,181)" stroke="rgb(235,222,181)" stroke-width="1" opacity="1" d="M 453.5 459 L 454 461.5 L 453 461.5 L 453.5 459 Z " /><path fill="rgb(235,222,181)" stroke="rgb(235,222,181)" stroke-width="1" opacity="1" d="M 611.5 460 L 612.5 462 L 611.5 460 Z " /><path fill="rgb(235,222,181)" stroke="rgb(235,222,181)" stroke-width="1" opacity="1" d="M 391.5 462 L 392.5 464 L 391.5 462 Z " /><path fill="rgb(235,222,181)" stroke="rgb(235,222,181)" stroke-width="1" opacity="1" d="M 317.5 463 L 316.5 465 L 317.5 463 Z " /><path fill="rgb(235,222,181)" stroke="rgb(235,222,181)" stroke-width="1" opacity="1" d="M 613.5 463 L 615.5 466 L 613.5 463 Z " /><path fill="rgb(235,222,181)" stroke="rgb(235,222,181)" stroke-width="1" opacity="1" d="M 314.5 465 L 313.5 467 L 314.5 465 Z " /><path fill="rgb(235,222,181)" stroke="rgb(235,222,181)" stroke-width="1" opacity="1" d="M 393.5 465 L 395.5 468 L 393.5 465 Z " /><path fill="rgb(235,222,181)" stroke="rgb(235,222,181)" stroke-width="1" opacity="1" d="M 406.5 465 L 407.5 467 L 406.5 465 Z " /><path fill="rgb(235,222,181)" stroke="rgb(235,222,181)" stroke-width="1" opacity="1" d="M 487.5 465 L 485.5 468 L 487.5 465 Z " /><path fill="rgb(235,222,181)" stroke="rgb(235,222,181)" stroke-width="1" opacity="1" d="M 311.5 467 L 310.5 469 L 311.5 467 Z " /><path fill="rgb(235,222,181)" stroke="rgb(235,222,181)" stroke-width="1" opacity="1" d="M 616.5 467 L 618.5 470 L 616.5 467 Z " /><path fill="rgb(235,222,181)" stroke="rgb(235,222,181)" stroke-width="1" opacity="1" d="M 308.5 469 L 306.5 472 L 308.5 469 Z " /><path fill="rgb(235,222,181)" stroke="rgb(235,222,181)" stroke-width="1" opacity="1" d="M 411.5 469 L 413.5 472 L 411.5 469 Z " /><path fill="rgb(235,222,181)" stroke="rgb(235,222,181)" stroke-width="1" opacity="1" d="M 484.5 469 L 483.5 471 L 484.5 469 Z " /><path fill="rgb(235,222,181)" stroke="rgb(235,222,181)" stroke-width="1" opacity="1" d="M 397.5 470 L 402.5 476 L 397.5 470 Z " /><path fill="rgb(235,222,181)" stroke="rgb(235,222,181)" stroke-width="1" opacity="1" d="M 494.5 472 L 492.5 475 L 494.5 472 Z " /><path fill="rgb(235,222,181)" stroke="rgb(235,222,181)" stroke-width="1" opacity="1" d="M 620.5 472 L 629.5 482 L 620.5 472 Z " /><path fill="rgb(235,222,181)" stroke="rgb(235,222,181)" stroke-width="1" opacity="1" d="M 303.5 473 L 297.5 480 L 303.5 473 Z " /><path fill="rgb(235,222,181)" stroke="rgb(235,222,181)" stroke-width="1" opacity="1" d="M 416.5 473 L 417.5 475 L 416.5 473 Z " /><path fill="rgb(235,222,181)" stroke="rgb(235,222,181)" stroke-width="1" opacity="1" d="M 481.5 473 L 480.5 475 L 481.5 473 Z " /><path fill="rgb(235,222,181)" stroke="rgb(235,222,181)" stroke-width="1" opacity="1" d="M 491.5 476 L 490.5 478 L 491.5 476 Z " /><path fill="rgb(235,222,181)" stroke="rgb(235,222,181)" stroke-width="1" opacity="1" d="M 405.5 477 L 407.5 480 L 405.5 477 Z " /><path fill="rgb(235,222,181)" stroke="rgb(235,222,181)" stroke-width="1" opacity="1" d="M 423.5 477 L 428 479.5 L 426.5 480 L 423.5 477 Z " /><path fill="rgb(235,222,181)" stroke="rgb(235,222,181)" stroke-width="1" opacity="1" d="M 409.5 480 L 410.5 482 L 409.5 480 Z " /><path fill="rgb(235,222,181)" stroke="rgb(235,222,181)" stroke-width="1" opacity="1" d="M 476.5 481 L 475.5 483 L 476.5 481 Z " /><path fill="rgb(235,222,181)" stroke="rgb(235,222,181)" stroke-width="1" opacity="1" d="M 412.5 482 L 413.5 484 L 412.5 482 Z " /><path fill="rgb(235,222,181)" stroke="rgb(235,222,181)" stroke-width="1" opacity="1" d="M 487.5 482 L 486.5 484 L 487.5 482 Z " /><path fill="rgb(235,222,181)" stroke="rgb(235,222,181)" stroke-width="1" opacity="1" d="M 631.5 482 L 632.5 484 L 631.5 482 Z " /><path fill="rgb(235,222,181)" stroke="rgb(235,222,181)" stroke-width="1" opacity="1" d="M 308.5 484 L 309.5 486 L 308.5 484 Z " /><path fill="rgb(235,222,181)" stroke="rgb(235,222,181)" stroke-width="1" opacity="1" d="M 472.5 484 L 475 484.5 Q 472.9 487.8 472.5 484 Z " /><path fill="rgb(235,222,181)" stroke="rgb(235,222,181)" stroke-width="1" opacity="1" d="M 417.5 485 L 418.5 487 L 417.5 485 Z " /><path fill="rgb(235,222,181)" stroke="rgb(235,222,181)" stroke-width="1" opacity="1" d="M 485.5 485 L 484.5 487 L 485.5 485 Z " /><path fill="rgb(235,222,181)" stroke="rgb(235,222,181)" stroke-width="1" opacity="1" d="M 311.5 486 L 316.5 492 L 311.5 486 Z " /><path fill="rgb(235,222,181)" stroke="rgb(235,222,181)" stroke-width="1" opacity="1" d="M 445.5 486 L 448 486.5 L 445.5 487 L 445.5 486 Z " /><path fill="rgb(235,222,181)" stroke="rgb(235,222,181)" stroke-width="1" opacity="1" d="M 449.5 487 L 452 487.5 L 449.5 488 L 449.5 487 Z " /><path fill="rgb(235,222,181)" stroke="rgb(235,222,181)" stroke-width="1" opacity="1" d="M 643.5 487 Q 646.8 485.9 646 488.5 L 643 490.5 L 644.5 488 L 643.5 487 Z " /><path fill="rgb(235,222,181)" stroke="rgb(235,222,181)" stroke-width="1" opacity="1" d="M 454.5 488 L 457 488.5 L 454.5 489 L 454.5 488 Z " /><path fill="rgb(235,222,181)" stroke="rgb(235,222,181)" stroke-width="1" opacity="1" d="M 463.5 488 L 462.5 490 L 460 489.5 L 463.5 488 Z " /><path fill="rgb(235,222,181)" stroke="rgb(235,222,181)" stroke-width="1" opacity="1" d="M 318.5 494 L 319.5 496 L 318.5 494 Z " /><path fill="rgb(235,222,181)" stroke="rgb(235,222,181)" stroke-width="1" opacity="1" d="M 486.5 495 L 489 495.5 L 486.5 496 L 486.5 495 Z " /><path fill="rgb(235,222,181)" stroke="rgb(235,222,181)" stroke-width="1" opacity="1" d="M 491.5 496 L 494 496.5 L 491.5 497 L 491.5 496 Z " /><path fill="rgb(235,222,181)" stroke="rgb(235,222,181)" stroke-width="1" opacity="1" d="M 637.5 496 L 632.5 502 L 637.5 496 Z " /><path fill="rgb(235,222,181)" stroke="rgb(235,222,181)" stroke-width="1" opacity="1" d="M 320.5 497 L 321.5 499 L 320.5 497 Z " /><path fill="rgb(235,222,181)" stroke="rgb(235,222,181)" stroke-width="1" opacity="1" d="M 449.5 497 L 452 497.5 L 449.5 498 L 449.5 497 Z " /><path fill="rgb(235,222,181)" stroke="rgb(235,222,181)" stroke-width="1" opacity="1" d="M 454.5 498 L 457 498.5 L 454.5 499 L 454.5 498 Z " /><path fill="rgb(235,222,181)" stroke="rgb(235,222,181)" stroke-width="1" opacity="1" d="M 460.5 499 L 463 499.5 L 460.5 500 L 460.5 499 Z " /><path fill="rgb(235,222,181)" stroke="rgb(235,222,181)" stroke-width="1" opacity="1" d="M 323.5 502 L 324.5 504 L 323.5 502 Z " /><path fill="rgb(235,222,181)" stroke="rgb(235,222,181)" stroke-width="1" opacity="1" d="M 460.5 502 L 459.5 504 L 460.5 502 Z " /><path fill="rgb(235,222,181)" stroke="rgb(235,222,181)" stroke-width="1" opacity="1" d="M 629.5 503 L 628.5 505 L 629.5 503 Z " /><path fill="rgb(235,222,181)" stroke="rgb(235,222,181)" stroke-width="1" opacity="1" d="M 481.5 504 L 484 504.5 L 481.5 505 L 481.5 504 Z " /><path fill="rgb(235,222,181)" stroke="rgb(235,222,181)" stroke-width="1" opacity="1" d="M 457.5 506 L 453.5 511 L 457.5 506 Z " /><path fill="rgb(235,222,181)" stroke="rgb(235,222,181)" stroke-width="1" opacity="1" d="M 469.5 506 L 470.5 508 L 469.5 506 Z " /><path fill="rgb(235,222,181)" stroke="rgb(235,222,181)" stroke-width="1" opacity="1" d="M 625.5 506 L 624.5 508 L 625.5 506 Z " /><path fill="rgb(235,222,181)" stroke="rgb(235,222,181)" stroke-width="1" opacity="1" d="M 523.5 507 L 524.5 509 L 523.5 507 Z " /><path fill="rgb(235,222,181)" stroke="rgb(235,222,181)" stroke-width="1" opacity="1" d="M 467.5 509 L 466.5 511 L 467.5 509 Z " /><path fill="rgb(235,222,181)" stroke="rgb(235,222,181)" stroke-width="1" opacity="1" d="M 621.5 509 L 620.5 511 L 621.5 509 Z " /><path fill="rgb(235,222,181)" stroke="rgb(235,222,181)" stroke-width="1" opacity="1" d="M 528.5 510 L 529.5 512 L 528.5 510 Z " /><path fill="rgb(235,222,181)" stroke="rgb(235,222,181)" stroke-width="1" opacity="1" d="M 618.5 511 L 617.5 513 L 618.5 511 Z " /><path fill="rgb(235,222,181)" stroke="rgb(235,222,181)" stroke-width="1" opacity="1" d="M 531.5 512 L 532.5 514 L 531.5 512 Z " /><path fill="rgb(235,222,181)" stroke="rgb(235,222,181)" stroke-width="1" opacity="1" d="M 615.5 513 L 614.5 515 L 615.5 513 Z " /><path fill="rgb(235,222,181)" stroke="rgb(235,222,181)" stroke-width="1" opacity="1" d="M 463.5 514 L 459.5 519 L 463.5 514 Z " /><path fill="rgb(235,222,181)" stroke="rgb(235,222,181)" stroke-width="1" opacity="1" d="M 514.5 514 L 519 516.5 L 517.5 516 Q 513.7 515.8 514.5 514 Z " /><path fill="rgb(235,222,181)" stroke="rgb(235,222,181)" stroke-width="1" opacity="1" d="M 534.5 514 L 536.5 517 L 534.5 514 Z " /><path fill="rgb(235,222,181)" stroke="rgb(235,222,181)" stroke-width="1" opacity="1" d="M 330.5 515 L 331.5 517 L 330.5 515 Z " /><path fill="rgb(235,222,181)" stroke="rgb(235,222,181)" stroke-width="1" opacity="1" d="M 610.5 516 L 609.5 518 L 610.5 516 Z " /><path fill="rgb(235,222,181)" stroke="rgb(235,222,181)" stroke-width="1" opacity="1" d="M 522.5 518 L 523.5 520 L 522.5 518 Z " /><path fill="rgb(235,222,181)" stroke="rgb(235,222,181)" stroke-width="1" opacity="1" d="M 539.5 518 L 545.5 525 L 539.5 518 Z " /><path fill="rgb(235,222,181)" stroke="rgb(235,222,181)" stroke-width="1" opacity="1" d="M 605.5 519 L 604.5 521 L 605.5 519 Z " /><path fill="rgb(235,222,181)" stroke="rgb(235,222,181)" stroke-width="1" opacity="1" d="M 333.5 520 L 334.5 522 L 333.5 520 Z " /><path fill="rgb(235,222,181)" stroke="rgb(235,222,181)" stroke-width="1" opacity="1" d="M 443.5 520 L 440.5 524 L 443.5 520 Z " /><path fill="rgb(235,222,181)" stroke="rgb(235,222,181)" stroke-width="1" opacity="1" d="M 525.5 520 L 526.5 522 L 525.5 520 Z " /><path fill="rgb(235,222,181)" stroke="rgb(235,222,181)" stroke-width="1" opacity="1" d="M 528.5 522 L 530.5 525 L 528.5 522 Z " /><path fill="rgb(235,222,181)" stroke="rgb(235,222,181)" stroke-width="1" opacity="1" d="M 336.5 524 L 340.5 529 L 336.5 524 Z " /><path fill="rgb(235,222,181)" stroke="rgb(235,222,181)" stroke-width="1" opacity="1" d="M 437.5 525 L 436.5 527 L 437.5 525 Z " /><path fill="rgb(235,222,181)" stroke="rgb(235,222,181)" stroke-width="1" opacity="1" d="M 533.5 526 L 537.5 531 L 533.5 526 Z " /><path fill="rgb(235,222,181)" stroke="rgb(235,222,181)" stroke-width="1" opacity="1" d="M 450.5 527 L 447.5 531 L 450.5 527 Z " /><path fill="rgb(235,222,181)" stroke="rgb(235,222,181)" stroke-width="1" opacity="1" d="M 547.5 527 L 549.5 530 L 547.5 527 Z " /><path fill="rgb(235,222,181)" stroke="rgb(235,222,181)" stroke-width="1" opacity="1" d="M 433.5 528 L 432.5 530 L 433.5 528 Z " /><path fill="rgb(235,222,181)" stroke="rgb(235,222,181)" stroke-width="1" opacity="1" d="M 343.5 530 L 344.5 532 L 343.5 530 Z " /><path fill="rgb(235,222,181)" stroke="rgb(235,222,181)" stroke-width="1" opacity="1" d="M 428.5 531 L 427.5 533 L 428.5 531 Z " /><path fill="rgb(235,222,181)" stroke="rgb(235,222,181)" stroke-width="1" opacity="1" d="M 550.5 531 L 551.5 533 L 550.5 531 Z " /><path fill="rgb(235,222,181)" stroke="rgb(235,222,181)" stroke-width="1" opacity="1" d="M 444.5 532 L 442.5 535 L 444.5 532 Z " /><path fill="rgb(235,222,181)" stroke="rgb(235,222,181)" stroke-width="1" opacity="1" d="M 489.5 532 L 490 534.5 L 489 534.5 L 489.5 532 Z " /><path fill="rgb(235,222,181)" stroke="rgb(235,222,181)" stroke-width="1" opacity="1" d="M 539.5 533 L 540.5 535 L 539.5 533 Z " /><path fill="rgb(235,222,181)" stroke="rgb(235,222,181)" stroke-width="1" opacity="1" d="M 552.5 534 L 553.5 535 L 562 535.5 L 553.5 536 L 552.5 534 Z " /><path fill="rgb(235,222,181)" stroke="rgb(235,222,181)" stroke-width="1" opacity="1" d="M 566.5 534 L 569 534.5 L 566.5 535 L 566.5 534 Z " /><path fill="rgb(235,222,181)" stroke="rgb(235,222,181)" stroke-width="1" opacity="1" d="M 440.5 535 L 439.5 537 L 440.5 535 Z " /><path fill="rgb(235,222,181)" stroke="rgb(235,222,181)" stroke-width="1" opacity="1" d="M 490.5 537 L 491 540.5 L 490 540.5 L 490.5 537 Z " /><path fill="rgb(235,222,181)" stroke="rgb(235,222,181)" stroke-width="1" opacity="1" d="M 480.5 538 L 481 540.5 L 480 540.5 L 480.5 538 Z " /><path fill="rgb(235,222,181)" stroke="rgb(235,222,181)" stroke-width="1" opacity="1" d="M 366.5 539 L 369 539.5 L 366.5 540 L 366.5 539 Z " /><path fill="rgb(235,222,181)" stroke="rgb(235,222,181)" stroke-width="1" opacity="1" d="M 407.5 539 L 410 539.5 L 407.5 540 L 407.5 539 Z " /><path fill="rgb(235,222,181)" stroke="rgb(235,222,181)" stroke-width="1" opacity="1" d="M 434.5 539 L 433.5 541 L 434.5 539 Z " /><path fill="rgb(235,222,181)" stroke="rgb(235,222,181)" stroke-width="1" opacity="1" d="M 543.5 539 L 544.5 541 L 543.5 539 Z " /><path fill="rgb(235,222,181)" stroke="rgb(235,222,181)" stroke-width="1" opacity="1" d="M 374.5 540 L 382 540.5 L 374.5 541 L 374.5 540 Z " /><path fill="rgb(235,222,181)" stroke="rgb(235,222,181)" stroke-width="1" opacity="1" d="M 393.5 540 L 404 540.5 L 393.5 541 L 393.5 540 Z " /><path fill="rgb(235,222,181)" stroke="rgb(235,222,181)" stroke-width="1" opacity="1" d="M 481.5 544 L 482 548.5 L 481 548.5 L 481.5 544 Z " /><path fill="rgb(235,222,181)" stroke="rgb(235,222,181)" stroke-width="1" opacity="1" d="M 491.5 544 L 492 549.5 L 491 549.5 L 491.5 544 Z " /><path fill="rgb(235,222,181)" stroke="rgb(235,222,181)" stroke-width="1" opacity="1" d="M 408.5 549 L 411 549.5 L 408.5 550 L 408.5 549 Z " /><path fill="rgb(235,222,181)" stroke="rgb(235,222,181)" stroke-width="1" opacity="1" d="M 394.5 550 L 404 550.5 L 394.5 551 L 394.5 550 Z " /><path fill="rgb(235,222,181)" stroke="rgb(235,222,181)" stroke-width="1" opacity="1" d="M 383.5 553 L 382.5 555 L 383.5 553 Z " /><path fill="rgb(235,222,181)" stroke="rgb(235,222,181)" stroke-width="1" opacity="1" d="M 380.5 558 L 379.5 560 L 380.5 558 Z " /><path fill="rgb(235,222,181)" stroke="rgb(235,222,181)" stroke-width="1" opacity="1" d="M 481.5 562 L 482 566.5 L 481 566.5 L 481.5 562 Z " /><path fill="rgb(235,222,181)" stroke="rgb(235,222,181)" stroke-width="1" opacity="1" d="M 491.5 562 L 492 566.5 L 491 566.5 L 491.5 562 Z " /><path fill="rgb(235,222,181)" stroke="rgb(235,222,181)" stroke-width="1" opacity="1" d="M 480.5 569 L 481 571.5 L 480 571.5 L 480.5 569 Z " /><path fill="rgb(235,222,181)" stroke="rgb(235,222,181)" stroke-width="1" opacity="1" d="M 490.5 570 L 491 572.5 L 490 572.5 L 490.5 570 Z " /><path fill="rgb(235,222,181)" stroke="rgb(235,222,181)" stroke-width="1" opacity="1" d="M 489.5 574 L 490 576.5 L 489 576.5 L 489.5 574 Z " /><path fill="rgb(235,222,181)" stroke="rgb(235,222,181)" stroke-width="1" opacity="1" d="M 372.5 579 L 373 581.5 L 372 581.5 L 372.5 579 Z " /><path fill="rgb(235,222,181)" stroke="rgb(235,222,181)" stroke-width="1" opacity="1" d="M 371.5 585 L 372 587.5 L 371 587.5 L 371.5 585 Z " /><path fill="rgb(235,222,181)" stroke="rgb(235,222,181)" stroke-width="1" opacity="1" d="M 563.5 585 L 564 597.5 L 563 597.5 L 563.5 585 Z " /><path fill="rgb(235,222,181)" stroke="rgb(235,222,181)" stroke-width="1" opacity="1" d="M 474.5 586 L 475 587.5 L 472.5 592 L 472 590.5 L 474.5 586 Z " /><path fill="rgb(235,222,181)" stroke="rgb(235,222,181)" stroke-width="1" opacity="1" d="M 370.5 592 L 371 597.5 L 370 597.5 L 370.5 592 Z " /><path fill="rgb(235,222,181)" stroke="rgb(235,222,181)" stroke-width="1" opacity="1" d="M 463.5 607 L 462.5 609 L 463.5 607 Z " /><path fill="rgb(235,222,181)" stroke="rgb(235,222,181)" stroke-width="1" opacity="1" d="M 461.5 610 L 460.5 612 L 461.5 610 Z " /><path fill="rgb(235,222,181)" stroke="rgb(235,222,181)" stroke-width="1" opacity="1" d="M 459.5 613 L 457.5 616 L 459.5 613 Z " /><path fill="rgb(235,222,181)" stroke="rgb(235,222,181)" stroke-width="1" opacity="1" d="M 556.5 615 L 555.5 617 L 556.5 615 Z " /><path fill="rgb(235,222,181)" stroke="rgb(235,222,181)" stroke-width="1" opacity="1" d="M 370.5 616 L 371 621.5 L 370 621.5 L 370.5 616 Z " /><path fill="rgb(235,222,181)" stroke="rgb(235,222,181)" stroke-width="1" opacity="1" d="M 455.5 618 L 450.5 624 L 455.5 618 Z " /><path fill="rgb(235,222,181)" stroke="rgb(235,222,181)" stroke-width="1" opacity="1" d="M 482.5 618 L 483.5 620 L 482.5 618 Z " /><path fill="rgb(235,222,181)" stroke="rgb(235,222,181)" stroke-width="1" opacity="1" d="M 553.5 620 L 552.5 622 L 553.5 620 Z " /><path fill="rgb(235,222,181)" stroke="rgb(235,222,181)" stroke-width="1" opacity="1" d="M 484.5 621 L 485.5 623 L 484.5 621 Z " /><path fill="rgb(235,222,181)" stroke="rgb(235,222,181)" stroke-width="1" opacity="1" d="M 486.5 624 L 488.5 627 L 486.5 624 Z " /><path fill="rgb(235,222,181)" stroke="rgb(235,222,181)" stroke-width="1" opacity="1" d="M 550.5 625 L 549.5 627 L 550.5 625 Z " /><path fill="rgb(235,222,181)" stroke="rgb(235,222,181)" stroke-width="1" opacity="1" d="M 446.5 626 L 445.5 628 L 446.5 626 Z " /><path fill="rgb(235,222,181)" stroke="rgb(235,222,181)" stroke-width="1" opacity="1" d="M 371.5 627 L 372 629.5 L 371 629.5 L 371.5 627 Z " /><path fill="rgb(235,222,181)" stroke="rgb(235,222,181)" stroke-width="1" opacity="1" d="M 491.5 630 L 499.5 639 L 491.5 630 Z " /><path fill="rgb(235,222,181)" stroke="rgb(235,222,181)" stroke-width="1" opacity="1" d="M 372.5 633 L 373 635.5 L 372 635.5 L 372.5 633 Z " /><path fill="rgb(235,222,181)" stroke="rgb(235,222,181)" stroke-width="1" opacity="1" d="M 429.5 633 L 432 633.5 L 429.5 634 L 429.5 633 Z " /><path fill="rgb(235,222,181)" stroke="rgb(235,222,181)" stroke-width="1" opacity="1" d="M 407.5 634 L 423 634.5 L 407.5 635 L 407.5 634 Z " /><path fill="rgb(235,222,181)" stroke="rgb(235,222,181)" stroke-width="1" opacity="1" d="M 398.5 635 L 401 635.5 L 398.5 636 L 398.5 635 Z " /><path fill="rgb(235,222,181)" stroke="rgb(235,222,181)" stroke-width="1" opacity="1" d="M 393.5 636 L 396 636.5 L 393.5 637 L 393.5 636 Z " /><path fill="rgb(235,222,181)" stroke="rgb(235,222,181)" stroke-width="1" opacity="1" d="M 386.5 639 L 385.5 641 L 386.5 639 Z " /><path fill="rgb(235,222,181)" stroke="rgb(235,222,181)" stroke-width="1" opacity="1" d="M 453.5 639 L 454 645.5 L 453 645.5 L 453.5 639 Z " /><path fill="rgb(235,222,181)" stroke="rgb(235,222,181)" stroke-width="1" opacity="1" d="M 383.5 641 L 381.5 644 L 376.5 648 L 380.5 643 L 383.5 641 Z " /><path fill="rgb(235,222,181)" stroke="rgb(235,222,181)" stroke-width="1" opacity="1" d="M 503.5 641 L 505.5 644 L 503.5 641 Z " /><path fill="rgb(235,222,181)" stroke="rgb(235,222,181)" stroke-width="1" opacity="1" d="M 507.5 644 L 509.5 647 L 507.5 644 Z " /><path fill="rgb(235,222,181)" stroke="rgb(235,222,181)" stroke-width="1" opacity="1" d="M 541.5 646 L 542 656.5 L 541 656.5 L 541.5 646 Z " /><path fill="rgb(235,222,181)" stroke="rgb(235,222,181)" stroke-width="1" opacity="1" d="M 511.5 647 L 512.5 649 L 511.5 647 Z " /><path fill="rgb(235,222,181)" stroke="rgb(235,222,181)" stroke-width="1" opacity="1" d="M 514.5 649 L 515.5 651 L 514.5 649 Z " /><path fill="rgb(235,222,181)" stroke="rgb(235,222,181)" stroke-width="1" opacity="1" d="M 432.5 651 L 433 653.5 L 432 653.5 L 432.5 651 Z " /><path fill="rgb(235,222,181)" stroke="rgb(235,222,181)" stroke-width="1" opacity="1" d="M 519.5 652 L 520.5 654 L 519.5 652 Z " /><path fill="rgb(235,222,181)" stroke="rgb(235,222,181)" stroke-width="1" opacity="1" d="M 528.5 657 L 532 658.5 L 530.5 659 L 528.5 657 Z " /><path fill="rgb(235,222,181)" stroke="rgb(235,222,181)" stroke-width="1" opacity="1" d="M 432.5 659 L 433 662.5 L 432 662.5 L 432.5 659 Z " /><path fill="rgb(235,222,181)" stroke="rgb(235,222,181)" stroke-width="1" opacity="1" d="M 542.5 659 L 543 661.5 L 542 661.5 L 542.5 659 Z " /><path fill="rgb(235,222,181)" stroke="rgb(235,222,181)" stroke-width="1" opacity="1" d="M 460.5 663 L 462.5 666 L 460.5 663 Z " /><path fill="rgb(235,222,181)" stroke="rgb(235,222,181)" stroke-width="1" opacity="1" d="M 465.5 668 L 467.5 671 L 465.5 668 Z " /><path fill="rgb(235,222,181)" stroke="rgb(235,222,181)" stroke-width="1" opacity="1" d="M 438.5 678 L 439.5 680 L 438.5 678 Z " /><path fill="rgb(235,222,181)" stroke="rgb(235,222,181)" stroke-width="1" opacity="1" d="M 441.5 682 L 447.5 689 L 441.5 682 Z " /><path fill="rgb(235,222,181)" stroke="rgb(235,222,181)" stroke-width="1" opacity="1" d="M 683.5 699 L 682.5 701 L 683.5 699 Z " /><path fill="rgb(235,222,181)" stroke="rgb(235,222,181)" stroke-width="1" opacity="1" d="M 679.5 704 L 678.5 706 L 679.5 704 Z " /><path fill="rgb(235,222,181)" stroke="rgb(235,222,181)" stroke-width="1" opacity="1" d="M 674.5 708 L 673.5 710 L 674.5 708 Z " /><path fill="rgb(235,222,181)" stroke="rgb(235,222,181)" stroke-width="1" opacity="1" d="M 694.5 724 L 693.5 726 L 694.5 724 Z " /><path fill="rgb(235,222,181)" stroke="rgb(235,222,181)" stroke-width="1" opacity="1" d="M 688.5 730 L 686.5 733 L 688.5 730 Z " /><path fill="rgb(235,222,181)" stroke="rgb(235,222,181)" stroke-width="1" opacity="1" d="M 658.5 740 L 666 740.5 L 658.5 741 L 658.5 740 Z " /><path fill="rgb(235,222,181)" stroke="rgb(235,222,181)" stroke-width="1" opacity="1" d="M 419.5 769 L 422 769.5 L 419.5 770 L 419.5 769 Z " /><path fill="rgb(235,222,181)" stroke="rgb(235,222,181)" stroke-width="1" opacity="1" d="M 265.5 770 L 266.5 772 L 265.5 770 Z " /><path fill="rgb(235,222,181)" stroke="rgb(235,222,181)" stroke-width="1" opacity="1" d="M 469.5 770 L 468.5 772 L 469.5 770 Z " /><path fill="rgb(235,222,181)" stroke="rgb(235,222,181)" stroke-width="1" opacity="1" d="M 644.5 770 L 647 770.5 L 644.5 771 L 644.5 770 Z " /><path fill="rgb(235,222,181)" stroke="rgb(235,222,181)" stroke-width="1" opacity="1" d="M 769.5 770 L 770.5 772 L 769.5 770 Z " /><path fill="rgb(235,222,181)" stroke="rgb(235,222,181)" stroke-width="1" opacity="1" d="M 814.5 770 L 813.5 772 L 814.5 770 Z " /><path fill="rgb(235,222,181)" stroke="rgb(235,222,181)" stroke-width="1" opacity="1" d="M 488.5 772 L 489 843.5 L 487 844.5 L 488 843.5 L 488.5 772 Z " /><path fill="rgb(235,222,181)" stroke="rgb(235,222,181)" stroke-width="1" opacity="1" d="M 501.5 772 L 502 843.5 L 503 844.5 L 501 843.5 L 501.5 772 Z " /><path fill="rgb(235,222,181)" stroke="rgb(235,222,181)" stroke-width="1" opacity="1" d="M 607.5 772 L 608 842.5 L 607 842.5 L 607.5 772 Z " /><path fill="rgb(235,222,181)" stroke="rgb(235,222,181)" stroke-width="1" opacity="1" d="M 750.5 772 L 751 842.5 L 750 842.5 L 750.5 772 Z " /><path fill="rgb(235,222,181)" stroke="rgb(235,222,181)" stroke-width="1" opacity="1" d="M 310.5 773 L 309.5 775 L 310.5 773 Z " /><path fill="rgb(235,222,181)" stroke="rgb(235,222,181)" stroke-width="1" opacity="1" d="M 284.5 774 L 283.5 776 L 284.5 774 Z " /><path fill="rgb(235,222,181)" stroke="rgb(235,222,181)" stroke-width="1" opacity="1" d="M 658.5 775 L 660.5 778 L 658.5 775 Z " /><path fill="rgb(235,222,181)" stroke="rgb(235,222,181)" stroke-width="1" opacity="1" d="M 281.5 778 L 280.5 780 L 281.5 778 Z " /><path fill="rgb(235,222,181)" stroke="rgb(235,222,181)" stroke-width="1" opacity="1" d="M 306.5 778 L 305.5 780 L 306.5 778 Z " /><path fill="rgb(235,222,181)" stroke="rgb(235,222,181)" stroke-width="1" opacity="1" d="M 453.5 778 L 454.5 780 L 453.5 778 Z " /><path fill="rgb(235,222,181)" stroke="rgb(235,222,181)" stroke-width="1" opacity="1" d="M 303.5 782 L 302.5 784 L 303.5 782 Z " /><path fill="rgb(235,222,181)" stroke="rgb(235,222,181)" stroke-width="1" opacity="1" d="M 299.5 787 L 298.5 789 L 299.5 787 Z " /><path fill="rgb(235,222,181)" stroke="rgb(235,222,181)" stroke-width="1" opacity="1" d="M 451.5 787 L 450.5 789 L 451.5 787 Z " /><path fill="rgb(235,222,181)" stroke="rgb(235,222,181)" stroke-width="1" opacity="1" d="M 523.5 789 L 536 789.5 L 523.5 790 L 523.5 789 Z " /><path fill="rgb(235,222,181)" stroke="rgb(235,222,181)" stroke-width="1" opacity="1" d="M 629.5 789 L 641 789.5 L 629.5 790 L 629.5 789 Z " /><path fill="rgb(235,222,181)" stroke="rgb(235,222,181)" stroke-width="1" opacity="1" d="M 561.5 791 L 562 793.5 L 561 793.5 L 561.5 791 Z " /><path fill="rgb(235,222,181)" stroke="rgb(235,222,181)" stroke-width="1" opacity="1" d="M 270.5 793 L 269.5 795 L 270.5 793 Z " /><path fill="rgb(235,222,181)" stroke="rgb(235,222,181)" stroke-width="1" opacity="1" d="M 292.5 796 L 291.5 798 L 292.5 796 Z " /><path fill="rgb(235,222,181)" stroke="rgb(235,222,181)" stroke-width="1" opacity="1" d="M 541.5 796 L 542 798.5 L 541 798.5 L 541.5 796 Z " /><path fill="rgb(235,222,181)" stroke="rgb(235,222,181)" stroke-width="1" opacity="1" d="M 629.5 798 L 640 798.5 L 629.5 799 L 629.5 798 Z " /><path fill="rgb(235,222,181)" stroke="rgb(235,222,181)" stroke-width="1" opacity="1" d="M 662.5 799 L 661.5 801 L 662.5 799 Z " /><path fill="rgb(235,222,181)" stroke="rgb(235,222,181)" stroke-width="1" opacity="1" d="M 561.5 800 L 562 802.5 L 561 802.5 L 561.5 800 Z " /><path fill="rgb(235,222,181)" stroke="rgb(235,222,181)" stroke-width="1" opacity="1" d="M 288.5 801 L 287.5 803 L 288.5 801 Z " /><path fill="rgb(235,222,181)" stroke="rgb(235,222,181)" stroke-width="1" opacity="1" d="M 523.5 804 L 536 804.5 L 523.5 805 L 523.5 804 Z " /><path fill="rgb(235,222,181)" stroke="rgb(235,222,181)" stroke-width="1" opacity="1" d="M 285.5 805 L 284.5 807 L 285.5 805 Z " /><path fill="rgb(235,222,181)" stroke="rgb(235,222,181)" stroke-width="1" opacity="1" d="M 449.5 805 L 453.5 810 L 449.5 805 Z " /><path fill="rgb(235,222,181)" stroke="rgb(235,222,181)" stroke-width="1" opacity="1" d="M 401.5 806 L 404.5 810 L 401.5 806 Z " /><path fill="rgb(235,222,181)" stroke="rgb(235,222,181)" stroke-width="1" opacity="1" d="M 658.5 806 L 659.5 808 L 658.5 806 Z " /><path fill="rgb(235,222,181)" stroke="rgb(235,222,181)" stroke-width="1" opacity="1" d="M 284.5 810 L 287.5 814 L 284.5 810 Z " /><path fill="rgb(235,222,181)" stroke="rgb(235,222,181)" stroke-width="1" opacity="1" d="M 457.5 819 L 458 826.5 L 457 826.5 L 457.5 819 Z " /><path fill="rgb(235,222,181)" stroke="rgb(235,222,181)" stroke-width="1" opacity="1" d="M 268.5 821 L 269.5 823 L 268.5 821 Z " /><path fill="rgb(235,222,181)" stroke="rgb(235,222,181)" stroke-width="1" opacity="1" d="M 294.5 821 L 299.5 827 L 294.5 821 Z " /><path fill="rgb(235,222,181)" stroke="rgb(235,222,181)" stroke-width="1" opacity="1" d="M 528.5 824 L 529.5 826 L 528.5 824 Z " /><path fill="rgb(235,222,181)" stroke="rgb(235,222,181)" stroke-width="1" opacity="1" d="M 552.5 824 L 553.5 826 L 552.5 824 Z " /><path fill="rgb(235,222,181)" stroke="rgb(235,222,181)" stroke-width="1" opacity="1" d="M 424.5 826 L 427 826.5 L 424.5 827 L 424.5 826 Z " /><path fill="rgb(235,222,181)" stroke="rgb(235,222,181)" stroke-width="1" opacity="1" d="M 804.5 826 L 805.5 828 L 804.5 826 Z " /><path fill="rgb(235,222,181)" stroke="rgb(235,222,181)" stroke-width="1" opacity="1" d="M 273.5 827 L 276.5 831 L 273.5 827 Z " /><path fill="rgb(235,222,181)" stroke="rgb(235,222,181)" stroke-width="1" opacity="1" d="M 533.5 831 L 534.5 833 L 533.5 831 Z " /><path fill="rgb(235,222,181)" stroke="rgb(235,222,181)" stroke-width="1" opacity="1" d="M 304.5 832 L 309.5 838 L 304.5 832 Z " /><path fill="rgb(235,222,181)" stroke="rgb(235,222,181)" stroke-width="1" opacity="1" d="M 559.5 833 L 560.5 835 L 559.5 833 Z " /><path fill="rgb(235,222,181)" stroke="rgb(235,222,181)" stroke-width="1" opacity="1" d="M 396.5 834 L 398.5 837 L 396.5 834 Z " /><path fill="rgb(235,222,181)" stroke="rgb(235,222,181)" stroke-width="1" opacity="1" d="M 454.5 835 L 453.5 837 L 454.5 835 Z " /><path fill="rgb(235,222,181)" stroke="rgb(235,222,181)" stroke-width="1" opacity="1" d="M 281.5 836 L 283.5 839 L 281.5 836 Z " /><path fill="rgb(235,222,181)" stroke="rgb(235,222,181)" stroke-width="1" opacity="1" d="M 663.5 836 L 662.5 838 L 663.5 836 Z " /><path fill="rgb(235,222,181)" stroke="rgb(235,222,181)" stroke-width="1" opacity="1" d="M 562.5 837 L 563.5 839 L 562.5 837 Z " /><path fill="rgb(235,222,181)" stroke="rgb(235,222,181)" stroke-width="1" opacity="1" d="M 541.5 842 L 543.5 845 L 541.5 842 Z " /><path fill="rgb(235,222,181)" stroke="rgb(235,222,181)" stroke-width="1" opacity="1" d="M 338.5 843 L 337.5 845 L 338.5 843 Z " /><path fill="rgb(235,222,181)" stroke="rgb(235,222,181)" stroke-width="1" opacity="1" d="M 723.5 843 L 724.5 845 L 723.5 843 Z " /><path fill="rgb(235,222,181)" stroke="rgb(235,222,181)" stroke-width="1" opacity="1" d="M 424.5 846 L 433 846.5 L 424.5 847 L 424.5 846 Z " /><path fill="rgb(252,254,254)" stroke="rgb(252,254,254)" stroke-width="1" opacity="1" d="M 545.5 267 L 544.5 269 L 545.5 267 Z " /><path fill="rgb(252,254,254)" stroke="rgb(252,254,254)" stroke-width="1" opacity="1" d="M 540.5 272 L 539.5 274 L 540.5 272 Z " /><path fill="rgb(252,254,254)" stroke="rgb(252,254,254)" stroke-width="1" opacity="1" d="M 776.5 288 L 778.5 291 L 776.5 288 Z " /><path fill="rgb(252,254,254)" stroke="rgb(252,254,254)" stroke-width="1" opacity="1" d="M 754.5 305 L 759.5 311 L 754.5 305 Z " /><path fill="rgb(252,254,254)" stroke="rgb(252,254,254)" stroke-width="1" opacity="1" d="M 680.5 326 L 684.5 331 L 680.5 326 Z " /><path fill="rgb(252,254,254)" stroke="rgb(252,254,254)" stroke-width="1" opacity="1" d="M 622.5 329 L 625 329.5 L 622.5 330 L 622.5 329 Z " /><path fill="rgb(252,254,254)" stroke="rgb(252,254,254)" stroke-width="1" opacity="1" d="M 767.5 331 L 768 333.5 L 767 333.5 L 767.5 331 Z " /><path fill="rgb(252,254,254)" stroke="rgb(252,254,254)" stroke-width="1" opacity="1" d="M 675.5 332 L 677.5 335 L 675.5 332 Z " /><path fill="rgb(252,254,254)" stroke="rgb(252,254,254)" stroke-width="1" opacity="1" d="M 638.5 333 L 639.5 335 L 638.5 333 Z " /><path fill="rgb(252,254,254)" stroke="rgb(252,254,254)" stroke-width="1" opacity="1" d="M 398.5 340 L 399 342.5 L 398 342.5 L 398.5 340 Z " /><path fill="rgb(252,254,254)" stroke="rgb(252,254,254)" stroke-width="1" opacity="1" d="M 398.5 347 L 399 350.5 L 398 350.5 L 398.5 347 Z " /><path fill="rgb(252,254,254)" stroke="rgb(252,254,254)" stroke-width="1" opacity="1" d="M 437.5 352 L 438.5 354 L 437.5 352 Z " /><path fill="rgb(252,254,254)" stroke="rgb(252,254,254)" stroke-width="1" opacity="1" d="M 631.5 353 L 634 353.5 L 631.5 354 L 631.5 353 Z " /><path fill="rgb(252,254,254)" stroke="rgb(252,254,254)" stroke-width="1" opacity="1" d="M 441.5 355 L 453.5 368 L 441.5 355 Z " /><path fill="rgb(252,254,254)" stroke="rgb(252,254,254)" stroke-width="1" opacity="1" d="M 529.5 356 L 533 356.5 L 529.5 357 L 529.5 356 Z " /><path fill="rgb(252,254,254)" stroke="rgb(252,254,254)" stroke-width="1" opacity="1" d="M 514.5 357 L 519 357.5 L 514.5 358 L 514.5 357 Z " /><path fill="rgb(252,254,254)" stroke="rgb(252,254,254)" stroke-width="1" opacity="1" d="M 664.5 357 L 663.5 359 L 664.5 357 Z " /><path fill="rgb(252,254,254)" stroke="rgb(252,254,254)" stroke-width="1" opacity="1" d="M 637.5 358 Q 641 360 636.5 362 L 637.5 358 Z " /><path fill="rgb(252,254,254)" stroke="rgb(252,254,254)" stroke-width="1" opacity="1" d="M 595.5 361 L 598 361.5 L 595.5 362 L 595.5 361 Z " /><path fill="rgb(252,254,254)" stroke="rgb(252,254,254)" stroke-width="1" opacity="1" d="M 496.5 363 L 495.5 365 L 496.5 363 Z " /><path fill="rgb(252,254,254)" stroke="rgb(252,254,254)" stroke-width="1" opacity="1" d="M 492.5 366 L 490.5 369 L 492.5 366 Z " /><path fill="rgb(252,254,254)" stroke="rgb(252,254,254)" stroke-width="1" opacity="1" d="M 569.5 368 L 570 370.5 L 569 370.5 L 569.5 368 Z " /><path fill="rgb(252,254,254)" stroke="rgb(252,254,254)" stroke-width="1" opacity="1" d="M 455.5 370 L 456.5 372 L 455.5 370 Z " /><path fill="rgb(252,254,254)" stroke="rgb(252,254,254)" stroke-width="1" opacity="1" d="M 487.5 371 L 484.5 375 L 487.5 371 Z " /><path fill="rgb(252,254,254)" stroke="rgb(252,254,254)" stroke-width="1" opacity="1" d="M 610.5 376 L 611.5 378 L 610.5 376 Z " /><path fill="rgb(252,254,254)" stroke="rgb(252,254,254)" stroke-width="1" opacity="1" d="M 482.5 377 L 481.5 379 L 482.5 377 Z " /><path fill="rgb(252,254,254)" stroke="rgb(252,254,254)" stroke-width="1" opacity="1" d="M 600.5 382 L 601.5 384 L 600.5 382 Z " /><path fill="rgb(252,254,254)" stroke="rgb(252,254,254)" stroke-width="1" opacity="1" d="M 662.5 382 L 663.5 384 L 662.5 382 Z " /><path fill="rgb(252,254,254)" stroke="rgb(252,254,254)" stroke-width="1" opacity="1" d="M 661.5 384 L 660.5 386 L 661.5 384 Z " /><path fill="rgb(252,254,254)" stroke="rgb(252,254,254)" stroke-width="1" opacity="1" d="M 593.5 386 L 596.5 390 L 593.5 386 Z " /><path fill="rgb(252,254,254)" stroke="rgb(252,254,254)" stroke-width="1" opacity="1" d="M 569.5 389 L 570 392.5 L 569 392.5 L 569.5 389 Z " /><path fill="rgb(252,254,254)" stroke="rgb(252,254,254)" stroke-width="1" opacity="1" d="M 557.5 439 L 560 439.5 L 557.5 440 L 557.5 439 Z " /><path fill="rgb(252,254,254)" stroke="rgb(252,254,254)" stroke-width="1" opacity="1" d="M 548.5 440 L 551 440.5 L 548.5 441 L 548.5 440 Z " /><path fill="rgb(252,254,254)" stroke="rgb(252,254,254)" stroke-width="1" opacity="1" d="M 363.5 446 L 368 446.5 L 363.5 447 L 363.5 446 Z " /><path fill="rgb(252,254,254)" stroke="rgb(252,254,254)" stroke-width="1" opacity="1" d="M 372.5 446 L 377 446.5 L 372.5 447 L 372.5 446 Z " /><path fill="rgb(252,254,254)" stroke="rgb(252,254,254)" stroke-width="1" opacity="1" d="M 356.5 447 L 359 447.5 L 356.5 448 L 356.5 447 Z " /><path fill="rgb(252,254,254)" stroke="rgb(252,254,254)" stroke-width="1" opacity="1" d="M 600.5 447 L 602.5 450 L 600.5 447 Z " /><path fill="rgb(252,254,254)" stroke="rgb(252,254,254)" stroke-width="1" opacity="1" d="M 504.5 448 L 503.5 450 L 504.5 448 Z " /><path fill="rgb(252,254,254)" stroke="rgb(252,254,254)" stroke-width="1" opacity="1" d="M 606.5 453 L 608.5 456 L 606.5 453 Z " /><path fill="rgb(252,254,254)" stroke="rgb(252,254,254)" stroke-width="1" opacity="1" d="M 511.5 454 L 510.5 456 L 511.5 454 Z " /><path fill="rgb(252,254,254)" stroke="rgb(252,254,254)" stroke-width="1" opacity="1" d="M 610.5 458 L 611.5 460 L 610.5 458 Z " /><path fill="rgb(252,254,254)" stroke="rgb(252,254,254)" stroke-width="1" opacity="1" d="M 505.5 459 L 500.5 465 L 505.5 459 Z " /><path fill="rgb(252,254,254)" stroke="rgb(252,254,254)" stroke-width="1" opacity="1" d="M 402.5 461 L 405.5 465 L 402.5 461 Z " /><path fill="rgb(252,254,254)" stroke="rgb(252,254,254)" stroke-width="1" opacity="1" d="M 613.5 462 L 614.5 464 L 613.5 462 Z " /><path fill="rgb(252,254,254)" stroke="rgb(252,254,254)" stroke-width="1" opacity="1" d="M 489.5 463 L 488.5 465 L 489.5 463 Z " /><path fill="rgb(252,254,254)" stroke="rgb(252,254,254)" stroke-width="1" opacity="1" d="M 313.5 465 L 312.5 467 L 313.5 465 Z " /><path fill="rgb(252,254,254)" stroke="rgb(252,254,254)" stroke-width="1" opacity="1" d="M 616.5 466 L 617.5 468 L 616.5 466 Z " /><path fill="rgb(252,254,254)" stroke="rgb(252,254,254)" stroke-width="1" opacity="1" d="M 408.5 467 L 411.5 471 L 408.5 467 Z " /><path fill="rgb(252,254,254)" stroke="rgb(252,254,254)" stroke-width="1" opacity="1" d="M 396.5 468 L 404.5 477 L 396.5 468 Z " /><path fill="rgb(252,254,254)" stroke="rgb(252,254,254)" stroke-width="1" opacity="1" d="M 306.5 470 L 304.5 473 L 306.5 470 Z " /><path fill="rgb(252,254,254)" stroke="rgb(252,254,254)" stroke-width="1" opacity="1" d="M 495.5 470 L 494.5 472 L 495.5 470 Z " /><path fill="rgb(252,254,254)" stroke="rgb(252,254,254)" stroke-width="1" opacity="1" d="M 619.5 470 L 620.5 472 L 619.5 470 Z " /><path fill="rgb(252,254,254)" stroke="rgb(252,254,254)" stroke-width="1" opacity="1" d="M 483.5 471 L 482.5 473 L 483.5 471 Z " /><path fill="rgb(252,254,254)" stroke="rgb(252,254,254)" stroke-width="1" opacity="1" d="M 414.5 472 L 415.5 474 L 414.5 472 Z " /><path fill="rgb(252,254,254)" stroke="rgb(252,254,254)" stroke-width="1" opacity="1" d="M 629.5 480 L 630.5 482 L 629.5 480 Z " /><path fill="rgb(252,254,254)" stroke="rgb(252,254,254)" stroke-width="1" opacity="1" d="M 474.5 485 L 473.5 487 L 474.5 485 Z " /><path fill="rgb(252,254,254)" stroke="rgb(252,254,254)" stroke-width="1" opacity="1" d="M 310.5 486 L 311.5 488 L 310.5 486 Z " /><path fill="rgb(252,254,254)" stroke="rgb(252,254,254)" stroke-width="1" opacity="1" d="M 644.5 490 L 636.5 499 L 644.5 490 Z " /><path fill="rgb(252,254,254)" stroke="rgb(252,254,254)" stroke-width="1" opacity="1" d="M 315.5 491 L 317.5 494 L 315.5 491 Z " /><path fill="rgb(252,254,254)" stroke="rgb(252,254,254)" stroke-width="1" opacity="1" d="M 462.5 500 L 461.5 502 L 462.5 500 Z " /><path fill="rgb(252,254,254)" stroke="rgb(252,254,254)" stroke-width="1" opacity="1" d="M 631.5 502 L 630.5 504 L 631.5 502 Z " /><path fill="rgb(252,254,254)" stroke="rgb(252,254,254)" stroke-width="1" opacity="1" d="M 459.5 504 L 458.5 506 L 459.5 504 Z " /><path fill="rgb(252,254,254)" stroke="rgb(252,254,254)" stroke-width="1" opacity="1" d="M 627.5 505 L 626.5 507 L 627.5 505 Z " /><path fill="rgb(252,254,254)" stroke="rgb(252,254,254)" stroke-width="1" opacity="1" d="M 623.5 508 L 622.5 510 L 623.5 508 Z " /><path fill="rgb(252,254,254)" stroke="rgb(252,254,254)" stroke-width="1" opacity="1" d="M 453.5 511 L 443.5 522 L 453.5 511 Z " /><path fill="rgb(252,254,254)" stroke="rgb(252,254,254)" stroke-width="1" opacity="1" d="M 465.5 511 L 463.5 514 L 465.5 511 Z " /><path fill="rgb(252,254,254)" stroke="rgb(252,254,254)" stroke-width="1" opacity="1" d="M 537.5 517 L 546.5 527 L 537.5 517 Z " /><path fill="rgb(252,254,254)" stroke="rgb(252,254,254)" stroke-width="1" opacity="1" d="M 458.5 519 L 451.5 527 L 458.5 519 Z " /><path fill="rgb(252,254,254)" stroke="rgb(252,254,254)" stroke-width="1" opacity="1" d="M 334.5 522 L 335.5 524 L 334.5 522 Z " /><path fill="rgb(252,254,254)" stroke="rgb(252,254,254)" stroke-width="1" opacity="1" d="M 530.5 523 L 532.5 526 L 530.5 523 Z " /><path fill="rgb(252,254,254)" stroke="rgb(252,254,254)" stroke-width="1" opacity="1" d="M 439.5 524 L 438.5 526 L 439.5 524 Z " /><path fill="rgb(252,254,254)" stroke="rgb(252,254,254)" stroke-width="1" opacity="1" d="M 435.5 527 L 434.5 529 L 435.5 527 Z " /><path fill="rgb(252,254,254)" stroke="rgb(252,254,254)" stroke-width="1" opacity="1" d="M 341.5 529 L 342.5 531 L 341.5 529 Z " /><path fill="rgb(252,254,254)" stroke="rgb(252,254,254)" stroke-width="1" opacity="1" d="M 548.5 529 L 549.5 531 L 548.5 529 Z " /><path fill="rgb(252,254,254)" stroke="rgb(252,254,254)" stroke-width="1" opacity="1" d="M 446.5 530 L 445.5 532 L 446.5 530 Z " /><path fill="rgb(252,254,254)" stroke="rgb(252,254,254)" stroke-width="1" opacity="1" d="M 538.5 531 L 539.5 533 L 538.5 531 Z " /><path fill="rgb(252,254,254)" stroke="rgb(252,254,254)" stroke-width="1" opacity="1" d="M 562.5 535 L 565 535.5 L 562.5 536 L 562.5 535 Z " /><path fill="rgb(252,254,254)" stroke="rgb(252,254,254)" stroke-width="1" opacity="1" d="M 371.5 540 L 374 540.5 L 371.5 541 L 371.5 540 Z " /><path fill="rgb(252,254,254)" stroke="rgb(252,254,254)" stroke-width="1" opacity="1" d="M 385.5 550 L 394 550.5 L 385.5 551 L 383.5 553 L 385.5 550 Z " /><path fill="rgb(252,254,254)" stroke="rgb(252,254,254)" stroke-width="1" opacity="1" d="M 491.5 550 L 492 552.5 L 491 552.5 L 491.5 550 Z " /><path fill="rgb(252,254,254)" stroke="rgb(252,254,254)" stroke-width="1" opacity="1" d="M 482.5 554 L 483 557.5 L 482 557.5 L 482.5 554 Z " /><path fill="rgb(252,254,254)" stroke="rgb(252,254,254)" stroke-width="1" opacity="1" d="M 491.5 558 L 492 561.5 L 491 561.5 L 491.5 558 Z " /><path fill="rgb(252,254,254)" stroke="rgb(252,254,254)" stroke-width="1" opacity="1" d="M 370.5 589 L 371 591.5 L 370 591.5 L 370.5 589 Z " /><path fill="rgb(252,254,254)" stroke="rgb(252,254,254)" stroke-width="1" opacity="1" d="M 369.5 602 L 370 612.5 L 369 612.5 L 369.5 602 Z " /><path fill="rgb(252,254,254)" stroke="rgb(252,254,254)" stroke-width="1" opacity="1" d="M 457.5 616 L 456.5 618 L 457.5 616 Z " /><path fill="rgb(252,254,254)" stroke="rgb(252,254,254)" stroke-width="1" opacity="1" d="M 370.5 622 L 371 625.5 L 370 625.5 L 370.5 622 Z " /><path fill="rgb(252,254,254)" stroke="rgb(252,254,254)" stroke-width="1" opacity="1" d="M 449.5 624 L 447.5 627 L 449.5 624 Z " /><path fill="rgb(252,254,254)" stroke="rgb(252,254,254)" stroke-width="1" opacity="1" d="M 488.5 627 L 490.5 630 L 488.5 627 Z " /><path fill="rgb(252,254,254)" stroke="rgb(252,254,254)" stroke-width="1" opacity="1" d="M 423.5 634 L 428 634.5 L 423.5 635 L 423.5 634 Z " /><path fill="rgb(252,254,254)" stroke="rgb(252,254,254)" stroke-width="1" opacity="1" d="M 401.5 635 L 405 635.5 L 401.5 636 L 401.5 635 Z " /><path fill="rgb(252,254,254)" stroke="rgb(252,254,254)" stroke-width="1" opacity="1" d="M 500.5 639 L 502.5 642 L 500.5 639 Z " /><path fill="rgb(252,254,254)" stroke="rgb(252,254,254)" stroke-width="1" opacity="1" d="M 380.5 644 L 377.5 648 L 380.5 644 Z " /><path fill="rgb(252,254,254)" stroke="rgb(252,254,254)" stroke-width="1" opacity="1" d="M 506.5 644 L 507.5 646 L 506.5 644 Z " /><path fill="rgb(252,254,254)" stroke="rgb(252,254,254)" stroke-width="1" opacity="1" d="M 463.5 666 L 464.5 668 L 463.5 666 Z " /><path fill="rgb(252,254,254)" stroke="rgb(252,254,254)" stroke-width="1" opacity="1" d="M 681.5 701 L 680.5 703 L 681.5 701 Z " /><path fill="rgb(252,254,254)" stroke="rgb(252,254,254)" stroke-width="1" opacity="1" d="M 676.5 706 L 675.5 708 L 676.5 706 Z " /><path fill="rgb(252,254,254)" stroke="rgb(252,254,254)" stroke-width="1" opacity="1" d="M 487.5 770 L 488.5 772 L 487.5 770 Z " /><path fill="rgb(252,254,254)" stroke="rgb(252,254,254)" stroke-width="1" opacity="1" d="M 286.5 771 L 285.5 773 L 286.5 771 Z " /><path fill="rgb(252,254,254)" stroke="rgb(252,254,254)" stroke-width="1" opacity="1" d="M 833.5 772 L 835 775.5 L 834 776.5 L 834 839.5 L 834 841.5 L 833.5 843 L 833.5 772 Z " /><path fill="rgb(252,254,254)" stroke="rgb(252,254,254)" stroke-width="1" opacity="1" d="M 246.5 773 L 247 842.5 L 246 842.5 L 246.5 773 Z " /><path fill="rgb(252,254,254)" stroke="rgb(252,254,254)" stroke-width="1" opacity="1" d="M 466.5 773 L 465.5 775 L 466.5 773 Z " /><path fill="rgb(252,254,254)" stroke="rgb(252,254,254)" stroke-width="1" opacity="1" d="M 495.5 773 L 494.5 775 L 495.5 773 Z " /><path fill="rgb(252,254,254)" stroke="rgb(252,254,254)" stroke-width="1" opacity="1" d="M 405.5 774 L 404.5 776 L 405.5 774 Z " /><path fill="rgb(252,254,254)" stroke="rgb(252,254,254)" stroke-width="1" opacity="1" d="M 308.5 776 L 307.5 778 L 308.5 776 Z " /><path fill="rgb(252,254,254)" stroke="rgb(252,254,254)" stroke-width="1" opacity="1" d="M 553.5 776 L 555.5 779 L 553.5 776 Z " /><path fill="rgb(252,254,254)" stroke="rgb(252,254,254)" stroke-width="1" opacity="1" d="M 402.5 777 L 401.5 779 L 400 778.5 L 402.5 777 Z " /><path fill="rgb(252,254,254)" stroke="rgb(252,254,254)" stroke-width="1" opacity="1" d="M 338.5 780 L 339.5 782 L 337 781.5 L 338.5 780 Z " /><path fill="rgb(252,254,254)" stroke="rgb(252,254,254)" stroke-width="1" opacity="1" d="M 277.5 783 L 276.5 785 L 277.5 783 Z " /><path fill="rgb(252,254,254)" stroke="rgb(252,254,254)" stroke-width="1" opacity="1" d="M 565.5 784 L 565.5 787 Q 562.5 785.5 565.5 784 Z " /><path fill="rgb(252,254,254)" stroke="rgb(252,254,254)" stroke-width="1" opacity="1" d="M 297.5 790 L 296.5 792 L 297.5 790 Z " /><path fill="rgb(252,254,254)" stroke="rgb(252,254,254)" stroke-width="1" opacity="1" d="M 530.5 790 L 531.5 792 L 530.5 790 Z " /><path fill="rgb(252,254,254)" stroke="rgb(252,254,254)" stroke-width="1" opacity="1" d="M 641.5 790 L 642.5 792 L 641.5 790 Z " /><path fill="rgb(252,254,254)" stroke="rgb(252,254,254)" stroke-width="1" opacity="1" d="M 381.5 792 L 380.5 794 L 381.5 792 Z " /><path fill="rgb(252,254,254)" stroke="rgb(252,254,254)" stroke-width="1" opacity="1" d="M 435.5 794 L 438 795.5 L 437.5 797 L 437 795 L 435.5 794 Z " /><path fill="rgb(252,254,254)" stroke="rgb(252,254,254)" stroke-width="1" opacity="1" d="M 293.5 795 L 296 796.5 L 294.5 797 L 293.5 795 Z " /><path fill="rgb(252,254,254)" stroke="rgb(252,254,254)" stroke-width="1" opacity="1" d="M 664.5 797 L 663.5 799 L 664.5 797 Z " /><path fill="rgb(252,254,254)" stroke="rgb(252,254,254)" stroke-width="1" opacity="1" d="M 729.5 797 L 728.5 799 L 729.5 797 Z " /><path fill="rgb(252,254,254)" stroke="rgb(252,254,254)" stroke-width="1" opacity="1" d="M 290.5 799 L 291 800.5 L 288 802.5 L 290.5 799 Z " /><path fill="rgb(252,254,254)" stroke="rgb(252,254,254)" stroke-width="1" opacity="1" d="M 355.5 802 L 354.5 804 L 355.5 802 Z " /><path fill="rgb(252,254,254)" stroke="rgb(252,254,254)" stroke-width="1" opacity="1" d="M 660.5 802 L 659.5 804 L 660.5 802 Z " /><path fill="rgb(252,254,254)" stroke="rgb(252,254,254)" stroke-width="1" opacity="1" d="M 730.5 803 L 732 805.5 L 731 805.5 L 730.5 803 Z " /><path fill="rgb(252,254,254)" stroke="rgb(252,254,254)" stroke-width="1" opacity="1" d="M 661.5 808 L 663.5 811 L 661.5 808 Z " /><path fill="rgb(252,254,254)" stroke="rgb(252,254,254)" stroke-width="1" opacity="1" d="M 669.5 808 L 670.5 810 L 669.5 808 Z " /><path fill="rgb(252,254,254)" stroke="rgb(252,254,254)" stroke-width="1" opacity="1" d="M 288.5 814 L 291 815 Q 289.9 817.7 292.5 817 L 292.5 818 L 288.5 814 Z " /><path fill="rgb(252,254,254)" stroke="rgb(252,254,254)" stroke-width="1" opacity="1" d="M 555.5 815 L 554 817.5 L 555.5 820 Q 550.5 817.5 555.5 815 Z " /><path fill="rgb(252,254,254)" stroke="rgb(252,254,254)" stroke-width="1" opacity="1" d="M 736.5 817 L 739 817.5 Q 736.9 820.8 736.5 817 Z " /><path fill="rgb(252,254,254)" stroke="rgb(252,254,254)" stroke-width="1" opacity="1" d="M 670.5 818 L 671.5 820 L 670.5 818 Z " /><path fill="rgb(252,254,254)" stroke="rgb(252,254,254)" stroke-width="1" opacity="1" d="M 410.5 820 L 413 821.5 L 411.5 821 L 410.5 820 Z " /><path fill="rgb(252,254,254)" stroke="rgb(252,254,254)" stroke-width="1" opacity="1" d="M 667.5 821 L 668 823.5 L 667 823.5 L 667.5 821 Z " /><path fill="rgb(252,254,254)" stroke="rgb(252,254,254)" stroke-width="1" opacity="1" d="M 422.5 822 L 423.5 824 L 422.5 822 Z " /><path fill="rgb(252,254,254)" stroke="rgb(252,254,254)" stroke-width="1" opacity="1" d="M 271.5 825 L 272.5 827 L 271.5 825 Z " /><path fill="rgb(252,254,254)" stroke="rgb(252,254,254)" stroke-width="1" opacity="1" d="M 300.5 827 Q 302.8 826.3 302 828.5 L 302.5 830 L 300.5 827 Z " /><path fill="rgb(252,254,254)" stroke="rgb(252,254,254)" stroke-width="1" opacity="1" d="M 557.5 830 L 558.5 832 L 557.5 830 Z " /><path fill="rgb(252,254,254)" stroke="rgb(252,254,254)" stroke-width="1" opacity="1" d="M 278.5 833 L 280.5 836 Q 279 832.5 277.5 835 L 276 834.5 L 278.5 833 Z " /><path fill="rgb(252,254,254)" stroke="rgb(252,254,254)" stroke-width="1" opacity="1" d="M 665.5 833 L 666 836 L 664 835.5 L 665.5 833 Z " /><path fill="rgb(252,254,254)" stroke="rgb(252,254,254)" stroke-width="1" opacity="1" d="M 367.5 835 L 368.5 837 L 367.5 835 Z " /><path fill="rgb(252,254,254)" stroke="rgb(252,254,254)" stroke-width="1" opacity="1" d="M 694.5 835 L 693.5 837 L 694.5 835 Z " /><path fill="rgb(252,254,254)" stroke="rgb(252,254,254)" stroke-width="1" opacity="1" d="M 745.5 835 L 744.5 837 L 745.5 835 Z " /><path fill="rgb(252,254,254)" stroke="rgb(252,254,254)" stroke-width="1" opacity="1" d="M 719.5 836 L 720.5 838 L 719.5 836 Z " /><path fill="rgb(252,254,254)" stroke="rgb(252,254,254)" stroke-width="1" opacity="1" d="M 310.5 838 L 313.5 842 L 310.5 838 Z " /><path fill="rgb(252,254,254)" stroke="rgb(252,254,254)" stroke-width="1" opacity="1" d="M 452.5 838 L 450.5 841 L 452.5 838 Z " /><path fill="rgb(252,254,254)" stroke="rgb(252,254,254)" stroke-width="1" opacity="1" d="M 565.5 838 L 564.5 840 L 565.5 838 Z " /><path fill="rgb(252,254,254)" stroke="rgb(252,254,254)" stroke-width="1" opacity="1" d="M 491.5 840 L 494 840.5 L 491.5 841 L 491.5 840 Z " /><path fill="rgb(252,254,254)" stroke="rgb(252,254,254)" stroke-width="1" opacity="1" d="M 285.5 841 L 288.5 845 L 285.5 841 Z " /><path fill="rgb(252,254,254)" stroke="rgb(252,254,254)" stroke-width="1" opacity="1" d="M 746.5 841 L 747.5 843 L 746.5 841 Z " /><path fill="rgb(252,254,255)" stroke="rgb(252,254,255)" stroke-width="1" opacity="1" d="M 0 0 L 1080 0 L 1080 1080 L 0 1080 L 0 0 Z M 554 234 Q 543 236 536 241 Q 525 249 520 262 L 500 351 L 507 349 L 520 348 L 534 284 L 541 272 Q 548 263 562 260 L 578 261 L 648 278 L 696 288 L 705 291 L 743 299 L 753 304 Q 763 311 767 326 L 766 345 L 744 438 L 735 482 L 732 491 L 721 544 L 718 553 L 709 597 L 692 668 L 692 672 L 686 695 L 680 704 Q 672 712 659 715 L 645 714 L 531 687 L 505 682 L 496 679 L 483 677 L 469 671 Q 458 663 454 649 L 454 637 L 455 636 L 455 633 Q 448 640 436 642 L 433 646 L 432 651 Q 431 661 433 668 L 440 682 Q 447 692 461 696 L 658 741 L 667 741 L 676 739 L 686 734 L 692 729 L 698 721 L 702 711 L 709 676 L 712 667 L 721 623 L 724 614 L 726 601 L 729 592 L 731 579 L 734 570 L 738 548 L 741 539 L 745 517 L 748 508 L 752 486 L 755 477 L 757 464 L 760 455 L 764 433 L 767 424 L 769 411 L 772 402 L 776 380 L 789 326 Q 791 314 788 307 L 779 291 Q 771 281 758 278 L 706 267 L 697 264 L 693 264 L 684 261 L 658 256 L 570 235 L 554 234 Z M 615 311 L 610 313 L 604 321 L 601 337 L 609 339 L 611 326 L 613 322 L 617 319 L 634 323 L 636 316 Q 627 311 615 311 Z M 660 321 L 659 329 L 675 332 L 678 336 L 675 354 L 683 355 L 686 342 Q 688 334 685 331 Q 677 321 660 321 Z M 623 329 L 621 330 L 618 334 L 616 342 L 616 349 L 619 351 L 632 354 L 636 353 L 638 350 L 640 342 L 640 335 L 635 331 L 623 329 Z M 397 333 L 399 344 L 398 354 L 396 360 L 380 389 L 378 396 L 378 412 L 382 426 Q 390 445 402 462 Q 414 476 433 483 L 460 490 L 465 490 L 455 466 L 451 448 L 451 426 L 452 421 Q 457 403 465 389 Q 462 376 454 368 Q 443 354 428 345 L 411 336 L 397 333 Z M 650 336 L 647 337 L 642 355 Q 639 359 633 360 L 621 357 L 616 357 L 611 364 L 610 377 L 617 380 L 629 381 L 632 377 L 632 373 L 635 364 Q 638 359 645 357 L 657 360 L 664 359 L 666 355 L 668 346 L 667 341 Q 661 335 650 336 Z M 563 342 Q 557 349 549 353 L 538 356 L 509 358 L 493 366 Q 469 389 460 426 L 460 447 L 462 458 Q 466 474 474 487 L 490 463 Q 503 446 524 437 L 543 432 L 556 431 L 559 428 L 564 418 L 568 405 L 569 394 L 570 393 L 570 369 L 569 368 L 568 355 L 564 344 Q 565 341 563 342 Z M 595 361 L 591 380 L 593 387 L 600 392 L 618 396 L 619 388 L 605 385 L 600 382 L 600 375 L 603 364 L 602 362 L 595 361 Z M 644 363 L 641 364 L 637 378 L 638 384 L 651 387 L 652 389 L 656 388 L 659 385 L 662 370 L 659 366 L 644 363 Z M 670 378 L 665 395 L 662 398 L 643 394 L 642 402 L 644 403 L 657 406 Q 664 407 668 404 L 673 398 L 677 381 L 670 378 Z M 558 439 L 528 445 Q 515 450 506 459 Q 489 474 480 495 Q 513 499 535 515 L 554 536 L 571 535 L 594 527 Q 617 515 637 499 L 647 488 Q 635 486 629 480 Q 617 470 609 456 Q 595 435 558 439 Z M 364 446 Q 329 452 307 470 L 297 480 L 297 481 L 301 481 L 313 488 L 321 499 L 334 523 Q 341 532 354 537 L 372 541 L 406 541 L 415 539 Q 432 533 444 522 L 460 505 L 463 499 Q 429 496 408 479 Q 392 467 384 448 L 377 446 L 364 446 Z M 480 504 L 488 528 L 491 543 L 491 553 L 492 554 L 491 569 L 489 577 Q 484 592 476 605 Q 480 618 488 628 Q 500 642 517 652 L 535 661 L 542 662 L 543 663 Q 544 658 542 657 L 542 646 L 544 639 L 558 615 L 564 600 L 564 584 L 561 572 Q 553 550 540 533 Q 520 508 480 504 Z M 470 506 L 463 515 Q 447 535 422 546 L 406 550 L 386 550 L 381 556 L 373 575 L 370 590 L 370 602 L 369 603 L 370 626 L 373 641 L 377 648 Q 383 640 394 637 L 405 636 L 406 635 L 428 635 L 437 633 L 448 627 Q 460 617 468 602 L 479 579 L 482 568 L 482 559 L 483 558 L 482 543 L 479 529 L 473 512 L 470 506 Z M 420 769 L 412 771 L 401 778 L 401 780 L 397 788 Q 395 798 399 804 L 399 806 L 401 806 L 402 809 L 417 816 L 435 819 Q 437 820 437 824 L 434 826 L 429 827 L 420 825 L 409 819 L 405 819 L 396 832 L 397 837 L 411 844 L 424 847 L 440 846 L 451 841 Q 456 836 458 827 Q 459 815 454 810 L 444 801 L 425 797 L 418 794 L 419 790 L 422 789 L 431 790 L 433 790 L 437 792 Q 439 791 438 794 L 440 793 L 444 796 L 447 795 L 455 784 L 455 780 Q 449 773 439 770 L 420 769 Z M 716 769 L 715 770 L 699 770 L 696 771 L 667 841 L 668 846 L 669 845 L 689 845 Q 693 843 693 838 L 696 835 L 715 835 L 719 835 L 723 844 L 725 845 L 747 845 L 748 843 L 740 827 L 741 825 L 739 824 L 738 821 L 738 819 L 734 811 L 734 809 L 732 808 L 732 805 L 729 801 L 716 769 Z M 760 769 Q 758 772 752 770 L 750 772 L 750 844 L 752 845 L 805 845 L 807 843 L 806 842 L 806 828 L 805 826 L 773 826 L 771 825 L 771 772 L 770 770 L 761 770 L 760 769 Z M 247 770 L 246 774 L 246 843 L 247 845 L 267 845 L 267 831 L 267 829 L 268 821 L 285 842 L 289 845 L 314 845 L 314 842 L 302 829 Q 303 826 301 827 L 292 819 L 293 817 L 290 815 L 287 811 L 284 810 L 287 805 Q 286 802 289 803 L 309 777 Q 312 774 311 770 L 289 770 L 287 771 L 268 797 L 267 797 L 267 789 L 268 788 L 267 787 L 267 772 L 266 770 L 247 770 Z M 347 770 L 341 780 L 315 844 L 317 845 L 335 845 L 336 846 L 338 845 L 342 837 L 344 835 L 367 835 L 371 843 L 374 845 L 395 845 L 396 841 L 394 840 L 389 826 L 389 824 L 387 823 L 366 771 L 364 770 L 347 770 Z M 470 770 L 468 772 L 468 845 L 469 845 L 488 845 L 489 844 L 489 772 L 488 770 L 470 770 Z M 503 770 L 501 772 L 501 840 L 500 841 L 501 844 L 503 845 L 517 845 L 518 846 L 521 845 L 522 844 L 522 826 L 524 824 L 529 825 L 531 829 Q 530 831 533 830 L 536 836 Q 535 838 538 837 L 540 842 L 544 845 L 564 845 L 565 846 L 567 845 L 567 843 L 552 824 L 551 820 L 554 818 Q 559 812 562 804 L 562 792 L 556 779 L 550 773 Q 547 774 548 772 L 547 772 L 542 770 L 503 770 Z M 608 770 L 607 773 L 607 844 L 609 845 L 651 845 L 655 844 L 657 844 L 657 842 L 666 836 L 668 824 L 667 816 L 664 811 L 657 806 L 660 804 L 661 802 L 665 798 L 664 797 L 666 796 L 665 795 L 665 785 L 660 775 L 648 770 L 608 770 Z M 815 770 L 813 772 L 813 845 L 814 845 L 833 845 L 834 842 L 834 840 L 834 777 L 835 776 L 834 773 L 832 770 L 815 770 Z M 492 840 L 492 841 L 494 841 L 492 840 Z " /><path fill="rgb(252,254,255)" stroke="rgb(252,254,255)" stroke-width="1" opacity="1" d="M 522 790 L 529.5 790 L 530.5 791 Q 532 788.5 537.5 790 Q 542.1 791.9 541 799.5 L 538.5 803 L 536.5 804 L 522 804 L 522 790 Z " /><path fill="rgb(252,254,255)" stroke="rgb(252,254,255)" stroke-width="1" opacity="1" d="M 629.5 790 L 640.5 790 L 643 792.5 Q 643.8 797.3 640.5 798 Q 635.8 799.2 634.5 797 L 629.5 798 Q 626.8 796.8 628 791.5 L 629.5 790 Z " /><path fill="rgb(252,254,255)" stroke="rgb(252,254,255)" stroke-width="1" opacity="1" d="M 706.5 802 L 712 817 L 709.5 816 Q 708 818.5 702.5 817 Q 699.8 815.8 702 814.5 L 706.5 802 Z " /><path fill="rgb(252,254,255)" stroke="rgb(252,254,255)" stroke-width="1" opacity="1" d="M 355.5 803 L 361 815.5 L 359.5 817 L 350 817 Q 350.7 808.7 355.5 803 Z " /><path fill="rgb(252,254,255)" stroke="rgb(252,254,255)" stroke-width="1" opacity="1" d="M 629.5 816 L 641.5 816 L 645 818.5 L 646 821.5 L 643.5 825 L 641.5 826 L 629.5 826 Q 626.3 824.3 628 817.5 L 629.5 816 Z " /><path fill="rgb(140,93,49)" stroke="rgb(140,93,49)" stroke-width="1" opacity="1" d="M 550.5 235 L 567.5 235 L 576.5 238 L 624.5 248 L 742.5 276 L 755.5 278 Q 770.6 281.4 779 291.5 Q 785.2 298.3 788 308.5 L 789 322.5 L 776 377.5 L 776 381.5 L 773 390.5 L 771 403.5 L 768 412.5 L 764 434.5 L 761 443.5 L 759 456.5 L 756 465.5 L 752 487.5 L 749 496.5 L 747 509.5 L 744 518.5 L 740 540.5 L 737 549.5 L 733 571.5 L 730 580.5 L 728 593.5 L 725 602.5 L 721 624.5 L 718 633.5 L 716 646.5 L 713 655.5 L 709 677.5 L 706 686.5 L 704 699.5 L 700 714.5 Q 696.5 724 689.5 730 Q 683.1 736.1 673.5 739 Q 666 741.5 654.5 740 L 636.5 735 L 623.5 733 L 601.5 727 L 588.5 725 L 553.5 716 L 549.5 716 L 518.5 708 L 462.5 696 Q 447.8 691.8 440 680.5 L 433 665.5 L 432 654.5 Q 434.5 653 433 647.5 L 435.5 643 L 440.5 642 L 453.5 634 L 454 638.5 Q 451.5 640 453 645.5 Q 455.8 662.8 467.5 671 Q 474.4 676.1 484.5 678 L 532.5 688 L 637.5 713 Q 643.6 712.4 646.5 715 L 661.5 715 Q 673.1 712.1 680 704.5 L 687 693.5 L 690 682.5 L 690 678.5 L 710 594.5 L 714 572.5 L 733 492.5 L 733 488.5 L 741 457.5 L 745 435.5 L 753 404.5 L 757 382.5 L 767 342.5 L 768 327.5 Q 764.5 311 752.5 303 L 744.5 299 L 732.5 296 L 728.5 296 L 693.5 287 L 689.5 287 L 623.5 271 L 610.5 269 L 575.5 260 L 566.5 259 L 555.5 261 L 547.5 265 L 538 274.5 L 533 284.5 L 521 341.5 L 518.5 347 L 508.5 348 L 501 350 L 520 263.5 Q 523.7 252.2 531.5 245 Q 538.9 237.9 550.5 235 Z " /><path fill="rgb(140,93,49)" stroke="rgb(140,93,49)" stroke-width="1" opacity="1" d="M 612.5 312 L 623.5 312 L 635 315 L 634 322 L 620.5 319 L 615.5 319 L 612 321.5 L 609 336.5 L 607.5 338 L 602 337 L 602 330.5 L 605 319.5 L 610.5 313 L 612.5 312 Z " /><path fill="rgb(140,93,49)" stroke="rgb(140,93,49)" stroke-width="1" opacity="1" d="M 621.5 330 L 635.5 332 L 639 334.5 L 640 337.5 L 637 350.5 L 634.5 353 L 620.5 351 L 617 348.5 L 616 345.5 L 619 332.5 L 621.5 330 Z " /><path fill="rgb(140,93,49)" stroke="rgb(140,93,49)" stroke-width="1" opacity="1" d="M 398 334 Q 431.9 342.9 452 366.5 Q 460.6 374.9 464 388.5 Q 455.6 402.6 451 420.5 Q 452.2 425.2 450 426.5 L 450 445.5 L 455 468.5 L 464 489.5 L 462.5 489 Q 424 485 404 462.5 Q 390.8 445.2 382 423.5 L 379 412.5 L 379 394.5 L 398 356.5 Q 400.5 349 399 337.5 L 398 334 Z " /><path fill="rgb(140,93,49)" stroke="rgb(140,93,49)" stroke-width="1" opacity="1" d="M 651.5 336 L 664.5 339 L 667 341.5 L 667 347.5 L 665 355.5 L 662.5 359 Q 654.5 360 650.5 357 L 641.5 357 L 640 357.5 L 644 352.5 L 646 341.5 L 648.5 337 L 651.5 336 Z " /><path fill="rgb(140,93,49)" stroke="rgb(140,93,49)" stroke-width="1" opacity="1" d="M 562.5 343 L 565 347.5 L 569 367.5 L 569 393.5 L 564 415.5 L 560 424.5 L 555.5 430 L 543.5 431 L 523.5 436 Q 502.4 445.4 489 462.5 L 473.5 485 L 467 471.5 L 463 458.5 L 461 448.5 L 461 424.5 Q 470 389 492.5 367 L 507.5 359 L 536.5 357 L 548.5 354 Q 557.6 350.6 562.5 343 Z " /><path fill="rgb(140,93,49)" stroke="rgb(140,93,49)" stroke-width="1" opacity="1" d="M 615.5 358 Q 622.9 357.1 626.5 360 L 635.5 360 L 637.5 359 L 634 363.5 L 631 376.5 L 627.5 381 L 615.5 379 L 611 376.5 L 610 371.5 L 612 362.5 L 615.5 358 Z " /><path fill="rgb(140,93,49)" stroke="rgb(140,93,49)" stroke-width="1" opacity="1" d="M 643.5 364 L 656.5 366 L 661 369.5 L 659 382.5 L 655.5 387 L 642.5 385 L 638 382.5 L 638 375.5 L 640 367.5 L 643.5 364 Z " /><path fill="rgb(140,93,49)" stroke="rgb(140,93,49)" stroke-width="1" opacity="1" d="M 669 379 L 676 380 L 672 398.5 L 666.5 404 Q 662.7 406.7 654.5 405 L 642 401.5 L 644.5 395 L 655.5 398 L 662.5 398 L 666 393.5 L 669 379 Z " /><path fill="rgb(140,93,49)" stroke="rgb(140,93,49)" stroke-width="1" opacity="1" d="M 555.5 440 L 580.5 440 L 585.5 441 Q 600.1 444.9 608 455.5 Q 616.7 470.8 629.5 482 L 636.5 486 L 645 488.5 L 638.5 496 Q 618.1 514.6 591.5 527 L 570.5 534 L 553.5 535 L 539.5 518 L 517.5 504 L 504.5 499 L 488.5 495 L 483.5 495 L 481 493.5 Q 492.4 470.4 511.5 455 L 524.5 447 L 537.5 443 L 554.5 441 L 555.5 440 Z " /><path fill="rgb(140,93,49)" stroke="rgb(140,93,49)" stroke-width="1" opacity="1" d="M 362.5 447 L 377.5 447 L 383 448 Q 389.9 464.4 402.5 476 L 424.5 490 L 441.5 496 L 454.5 499 L 459.5 499 L 462 500.5 L 444.5 520 Q 434.1 529.6 420.5 536 L 406.5 540 L 382.5 541 L 381.5 540 L 363.5 539 L 353.5 536 Q 341.9 531.6 335 522.5 L 322 498.5 L 311.5 486 L 298 479.5 Q 321.4 454.4 362.5 447 Z " /><path fill="rgb(140,93,49)" stroke="rgb(140,93,49)" stroke-width="1" opacity="1" d="M 480.5 504 L 498.5 508 L 509.5 512 Q 527.3 519.2 539 532.5 Q 550.9 548.6 559 568.5 L 563 582.5 L 563 600.5 L 557 614.5 L 543 638.5 L 541 646.5 L 541 656.5 L 542 661.5 L 540.5 661 L 534.5 660 L 516.5 651 Q 500.6 641.4 489 627.5 Q 480.7 618.3 477 604.5 Q 484.9 591.9 490 576.5 L 492 566.5 L 492 544.5 L 487 521.5 L 480 505.5 L 480.5 504 Z " /><path fill="rgb(140,93,49)" stroke="rgb(140,93,49)" stroke-width="1" opacity="1" d="M 469.5 507 L 474 515.5 L 480 535.5 L 481 548.5 L 482 549.5 L 482 561.5 Q 473.5 602.5 447.5 626 Q 440.1 632.1 428.5 634 L 407.5 634 L 406.5 635 L 393.5 636 Q 383 639.5 376.5 647 L 373 637.5 L 371 626.5 L 370 598.5 L 371 597.5 L 371 588.5 L 374 573.5 Q 377.6 560.1 385.5 551 L 403.5 551 L 423.5 546 Q 448.1 534.6 464 514.5 L 469.5 507 Z " /><path fill="rgb(140,93,49)" stroke="rgb(140,93,49)" stroke-width="1" opacity="1" d="M 422.5 769 Q 444.8 768.7 455 780.5 L 455 782.5 L 445.5 795 L 430.5 789 L 419.5 789 L 417 792.5 L 420.5 796 L 441.5 801 Q 449.6 803.9 454 810.5 Q 459.2 816.3 457 829.5 Q 454.9 836.9 449.5 841 Q 439.6 848.6 419.5 846 Q 404.3 843.2 396 833.5 L 405.5 819 L 420.5 826 L 432.5 827 L 437 825 Q 438.3 820.4 435.5 819 L 414.5 815 Q 405.2 811.8 400 804.5 L 398 800.5 L 397 789.5 Q 398.7 778.7 406.5 774 L 412.5 771 L 422.5 769 Z " /><path fill="rgb(140,93,49)" stroke="rgb(140,93,49)" stroke-width="1" opacity="1" d="M 248.5 770 L 264.5 770 L 267 772.5 L 267.5 797 L 287.5 771 L 289.5 770 L 309.5 770 L 311 772.5 L 284 806.5 L 284 810.5 L 314 842.5 L 314 845 L 289.5 845 L 284 839.5 L 268.5 821 L 267 821.5 L 267 843.5 L 265.5 845 L 248.5 845 L 247 843.5 L 247 771.5 L 248.5 770 Z " /><path fill="rgb(140,93,49)" stroke="rgb(140,93,49)" stroke-width="1" opacity="1" d="M 348.5 770 L 362.5 770 L 366 772.5 L 395 843.5 L 393.5 845 L 374.5 845 L 372 844 L 370 837.5 L 367.5 835 L 346.5 835 L 345.5 834 L 342 835 Q 341.1 841.5 336.5 845 L 316.5 845 Q 315.5 845 316 840.5 L 342 778.5 L 346.5 771 L 348.5 770 Z M 354 802 L 349 816 L 351 817 L 361 817 L 356 804 Q 357 801 354 802 Z " /><path fill="rgb(140,93,49)" stroke="rgb(140,93,49)" stroke-width="1" opacity="1" d="M 470.5 770 L 485.5 770 L 488 771 L 488 843.5 L 486.5 845 L 469.5 845 L 469 843.5 L 468 842.5 L 468 772.5 L 470.5 770 Z " /><path fill="rgb(140,93,49)" stroke="rgb(140,93,49)" stroke-width="1" opacity="1" d="M 503.5 770 L 538.5 770 Q 551 772 557 780.5 Q 562.1 787.4 562 799.5 L 557 813.5 L 551.5 819 Q 548.9 818.2 550 821.5 L 565 840.5 L 566 845 L 544.5 845 L 540 840.5 L 528.5 824 L 522 824 L 522 842.5 L 521 845 L 503.5 845 L 502 843.5 L 502 771.5 L 503.5 770 Z M 524 789 L 522 791 L 522 804 L 524 805 Q 535 807 540 803 L 542 799 L 540 791 Q 535 787 524 789 Z " /><path fill="rgb(140,93,49)" stroke="rgb(140,93,49)" stroke-width="1" opacity="1" d="M 609.5 770 L 643.5 770 Q 644.8 772.2 649.5 771 Q 657.8 773.1 662 779.5 Q 666.2 784.3 665 794.5 L 657 805.5 L 664 811.5 Q 668.8 816.7 667 828.5 L 660.5 840 L 648.5 845 L 609.5 845 L 608 843.5 L 608 771.5 L 609.5 770 Z M 630 789 L 628 791 Q 626 797 630 799 Q 638 801 642 798 L 644 795 L 643 792 L 641 789 L 630 789 Z M 628 816 L 628 826 L 643 826 L 645 825 L 646 823 L 645 817 L 643 816 L 628 816 Z " /><path fill="rgb(140,93,49)" stroke="rgb(140,93,49)" stroke-width="1" opacity="1" d="M 699.5 770 L 713.5 770 L 717 772.5 L 744 835.5 L 746 845 L 725.5 845 L 723 842.5 L 720 835 L 694.5 835 L 692 837.5 L 690 844 L 687.5 845 L 668.5 845 L 667 841.5 L 697.5 771 L 699.5 770 Z M 707 802 L 701 814 L 701 817 L 712 817 L 713 816 L 707 802 Z " /><path fill="rgb(140,93,49)" stroke="rgb(140,93,49)" stroke-width="1" opacity="1" d="M 752.5 770 L 768.5 770 L 771 772.5 L 771 826 L 803.5 826 L 806 828.5 L 806 842.5 L 805 845 L 752.5 845 L 751 843.5 L 751 771.5 L 752.5 770 Z " /><path fill="rgb(140,93,49)" stroke="rgb(140,93,49)" stroke-width="1" opacity="1" d="M 815.5 770 L 830.5 770 L 833 771 L 833 843.5 L 831.5 845 L 814.5 845 L 813 843.5 L 813 772.5 L 815.5 770 Z " /></svg>